<?xml version="1.0" encoding="UTF-8"?>
<svg version="1.1" xmlns="http://www.w3.org/2000/svg" width="843" height="596">
<path d="M0 0 C25.41 0.99 50.82 1.98 77 3 C77 27.09 77 51.18 77 76 C78.65 76 80.3 76 82 76 C81.34 74.35 80.68 72.7 80 71 C84.24099724 65.89538151 88.78475691 61.16149281 93.5 56.5 C97.5546918 52.49090496 101.43978191 48.44135451 105.12890625 44.08984375 C108.14219622 40.72426936 111.3872099 37.59310392 114.60009766 34.41943359 C117.3242821 31.71571251 119.95350194 28.99250269 122.4375 26.0625 C126.13848749 21.70517975 130.22167721 17.75176026 134.28369141 13.73583984 C138.06726161 9.97882878 141.63132821 6.13865391 145 2 C149.66527427 3.43788399 153.99482683 5.32940591 158.3671875 7.4765625 C159.04677521 7.80667328 159.72636292 8.13678406 160.42654419 8.47689819 C162.57773005 9.52281436 164.7263841 10.57381617 166.875 11.625 C168.34098099 12.33888027 169.80712525 13.05242538 171.2734375 13.765625 C174.85085827 15.50654591 178.42601883 17.25202945 182 19 C180.78560888 22.34811117 179.51000575 24.90270108 177.19921875 27.609375 C176.64073242 28.27300049 176.08224609 28.93662598 175.50683594 29.62036133 C174.90645508 30.32314209 174.30607422 31.02592285 173.6875 31.75 C168.14600267 38.34684981 162.81694394 45.05820423 157.64672852 51.94946289 C155.1680665 55.23502401 152.66161437 58.44365114 149.9296875 61.5234375 C149.45499023 62.06250732 148.98029297 62.60157715 148.49121094 63.15698242 C147.22035357 64.58067878 145.92741065 65.98457561 144.6328125 67.38671875 C142.37837478 70.35318081 142.37837478 70.35318081 144 76 C168.42 76 192.84 76 218 76 C218 58.18 218 40.36 218 22 C233.94993651 21.51869429 233.94993651 21.51869429 240.82617188 21.4140625 C245.49282531 21.34271231 250.15661598 21.25897483 254.82104492 21.09472656 C283.47409913 20.11249204 283.47409913 20.11249204 290.53555298 25.92530823 C292.99286882 28.45175848 294.96991804 31.11361278 297 34 C298.46569016 35.50547075 299.95922556 36.98471272 301.48828125 38.42578125 C302.76578412 39.7186295 304.0406324 41.01410753 305.3125 42.3125 C309.06729535 46.1432265 312.82344674 49.89809286 316.89453125 53.39453125 C321.63401341 57.47862062 325.98964805 61.91740173 330.375 66.375 C331.96383525 67.98925662 333.55486903 69.60135326 335.1484375 71.2109375 C335.84114746 71.91524902 336.53385742 72.61956055 337.24755859 73.34521484 C338.91166413 75.07621474 338.91166413 75.07621474 341 76 C341 110.65 341 145.3 341 181 C301 181 301 181 299 180 C298.48895879 177.84949132 298.06672276 175.67762274 297.6875 173.5 C295.78401658 164.21816254 292.73907608 157.56613028 285.3125 151.50390625 C275.34171272 145.01952601 262.61642348 143.54676523 251.05859375 145.49609375 C243.28817574 147.4089783 236.63428398 150.06870696 232.125 156.9375 C228.95965446 162.32744152 227.75488118 167.6702741 227.375 173.875 C227.26285156 175.60363281 227.26285156 175.60363281 227.1484375 177.3671875 C227.07496094 178.67042969 227.07496094 178.67042969 227 180 C215.66667713 180.03106969 204.33335881 180.05113998 193 180.0625 C192.15211411 180.06335602 191.30422821 180.06421204 190.4306488 180.06509399 C165.03284705 180.08770506 139.64420047 179.93392184 114.25 179.5 C113.19963562 179.48206327 113.19963562 179.48206327 112.12805176 179.46376419 C103.75183171 179.31978503 95.37581813 179.16576279 87 179 C86.76925781 177.99839844 86.53851563 176.99679687 86.30078125 175.96484375 C85.97216165 174.62219794 85.64268857 173.27976082 85.3125 171.9375 C85.16361328 171.28072266 85.01472656 170.62394531 84.86132812 169.94726562 C83.44110268 164.29421142 81.6897615 162.16566611 78 157 C123.87 157 169.74 157 217 157 C217 143.47 217 129.94 217 116 C217.33 115.34 217.66 114.68 218 114 C202.82 114.33 187.64 114.66 172 115 C179.01011297 125.51801591 179.01011297 125.51801591 186.0390625 136.0234375 C186.63847656 136.91804687 187.23789062 137.81265625 187.85546875 138.734375 C189.07255239 140.55059694 190.29140267 142.36563586 191.51171875 144.1796875 C192.09824219 145.05625 192.68476562 145.9328125 193.2890625 146.8359375 C193.81193848 147.61501465 194.33481445 148.3940918 194.87353516 149.19677734 C196 151 196 151 196 152 C172.57 152 149.14 152 125 152 C113 130 113 130 109.4375 121.1875 C107.29623291 117.39307178 107.29623291 117.39307178 104 115 C95.0601308 112.89497266 86.1405666 113.69089871 77 114 C77 126.54 77 139.08 77 152 C69.74 152 62.48 152 55 152 C49.46550355 141.56352097 44.0141601 131.10654403 38.7722168 120.52050781 C35.35373919 113.64172398 31.78725025 106.84721411 28.13476562 100.08984375 C27.73837891 99.34863281 27.34199219 98.60742188 26.93359375 97.84375 C26.58353271 97.19599609 26.23347168 96.54824219 25.87280273 95.88085938 C24.97193326 93.93951716 24.4498776 92.08803459 24 90 C24.6290625 89.52691406 25.258125 89.05382812 25.90625 88.56640625 C36.35821734 80.49131702 46.54266006 70.63427322 49 57 C50.13883141 45.43272672 47.6312952 35.52142011 40.6875 26.125 C29.74399939 13.28743198 15.90157731 6.63239227 0 2 C0 1.34 0 0.68 0 0 Z " fill="#3752A3" transform="translate(389,205)"/>
<path d="M0 0 C10.18524001 10.52728165 12.25710804 22.99955748 12.1171875 37.1875 C11.18931937 50.25718535 4.64209084 59.81407686 -4.90234375 68.34375 C-5.40922729 68.7987085 -5.91611084 69.25366699 -6.43835449 69.72241211 C-7.67470092 70.83126259 -8.91506115 71.93563506 -10.15625 73.0390625 C-9.79293579 73.75902908 -9.42962158 74.47899567 -9.05529785 75.22077942 C-5.63515802 82.00098801 -2.22077858 88.78405109 1.18714142 95.57040882 C2.93945695 99.05937335 4.69399105 102.54718476 6.45361328 106.0324707 C8.15114909 109.39498484 9.84283291 112.76038275 11.5304718 116.12787437 C12.1758855 117.41315183 12.82341325 118.69736992 13.47306824 119.9805088 C14.38148833 121.77562423 15.28175947 123.57485646 16.18164062 125.37426758 C16.69682251 126.39796951 17.21200439 127.42167145 17.74279785 128.47639465 C18.84375 131.0390625 18.84375 131.0390625 18.84375 134.0390625 C11.49868148 134.22467396 4.15412066 134.36669034 -3.19282055 134.45355988 C-6.6047331 134.49526175 -10.01503819 134.55178206 -13.42602539 134.64257812 C-17.35022515 134.74637776 -21.27378129 134.78499392 -25.19921875 134.8203125 C-26.42021774 134.86160278 -27.64121674 134.90289307 -28.8992157 134.94543457 C-37.15383456 134.94980678 -37.15383456 134.94980678 -39.96076965 132.39956665 C-41.27951144 130.32995866 -42.23807946 128.31153831 -43.15625 126.0390625 C-43.69548096 125.08563965 -44.23471191 124.1322168 -44.7902832 123.14990234 C-45.25781006 122.27543457 -45.72533691 121.4009668 -46.20703125 120.5 C-47.00850586 119.00919922 -47.00850586 119.00919922 -47.82617188 117.48828125 C-48.63924805 115.96654297 -48.63924805 115.96654297 -49.46875 114.4140625 C-50.54643733 112.40010974 -51.62588471 110.38709788 -52.70703125 108.375 C-53.25246582 107.33843262 -53.79790039 106.30186523 -54.35986328 105.23388672 C-56.12271948 101.98370691 -56.12271948 101.98370691 -58.33935547 98.87939453 C-65.25480143 88.49473304 -65.11942541 79.37485193 -64.65625 67.1640625 C-64.61602063 65.30085885 -64.57953673 63.43757042 -64.546875 61.57421875 C-64.45973985 57.06036189 -64.32228255 52.5506778 -64.15625 48.0390625 C-63.26131836 47.91861572 -62.36638672 47.79816895 -61.44433594 47.67407227 C-60.27161133 47.50705811 -59.09888672 47.34004395 -57.890625 47.16796875 C-56.14604004 46.92542358 -56.14604004 46.92542358 -54.36621094 46.67797852 C-49.93900065 45.79677914 -47.34657556 44.22938806 -44.15625 41.0390625 C-43.6676365 35.32977517 -43.6676365 35.32977517 -45.78125 30.1640625 C-52.73013832 23.94663611 -62.35254127 25.55692772 -71.15625 25.0390625 C-71.15625 61.0090625 -71.15625 96.9790625 -71.15625 134.0390625 C-89.30625 134.0390625 -107.45625 134.0390625 -126.15625 134.0390625 C-126.79882337 109.8966632 -127.30941962 85.75625952 -127.68535233 61.60859299 C-127.71831324 59.50444402 -127.75199316 57.40030769 -127.78585815 55.2961731 C-128.05950083 38.20950965 -128.22586745 21.12808136 -128.15625 4.0390625 C-127.31441162 3.57532227 -126.47257324 3.11158203 -125.60522461 2.63378906 C-122.45339081 0.89736092 -119.30195575 -0.83978982 -116.15063477 -2.57714844 C-114.79201788 -3.32604064 -113.43329591 -4.07474222 -112.07446289 -4.82324219 C-110.11055643 -5.90508563 -108.14704099 -6.98763589 -106.18359375 -8.0703125 C-105.58538315 -8.39964783 -104.98717255 -8.72898315 -104.37083435 -9.06829834 C-100.83364879 -11.01253753 -100.83364879 -11.01253753 -97.35745239 -13.06254578 C-93.70863334 -15.27615439 -90.84693422 -16.49940676 -86.59375 -16.82421875 C-85.56137207 -16.90720215 -84.52899414 -16.99018555 -83.46533203 -17.07568359 C-82.37333496 -17.14094238 -81.28133789 -17.20620117 -80.15625 -17.2734375 C-79.01140137 -17.34900879 -77.86655273 -17.42458008 -76.68701172 -17.50244141 C-50.95488909 -18.99019625 -20.1779328 -18.3502215 0 0 Z " fill="#3752A4" transform="translate(413.15625,222.9609375)"/>
<path d="M0 0 C25.41 0.99 50.82 1.98 77 3 C77 27.09 77 51.18 77 76 C78.65 76 80.3 76 82 76 C81.34 74.35 80.68 72.7 80 71 C84.24099724 65.89538151 88.78475691 61.16149281 93.5 56.5 C97.5546918 52.49090496 101.43978191 48.44135451 105.12890625 44.08984375 C108.14219622 40.72426936 111.3872099 37.59310392 114.60009766 34.41943359 C117.3242821 31.71571251 119.95350194 28.99250269 122.4375 26.0625 C126.13848749 21.70517975 130.22167721 17.75176026 134.28369141 13.73583984 C138.06726161 9.97882878 141.63132821 6.13865391 145 2 C149.66527427 3.43788399 153.99482683 5.32940591 158.3671875 7.4765625 C159.04677521 7.80667328 159.72636292 8.13678406 160.42654419 8.47689819 C162.57773005 9.52281436 164.7263841 10.57381617 166.875 11.625 C168.34098099 12.33888027 169.80712525 13.05242538 171.2734375 13.765625 C174.85085827 15.50654591 178.42601883 17.25202945 182 19 C180.78560888 22.34811117 179.51000575 24.90270108 177.19921875 27.609375 C176.64073242 28.27300049 176.08224609 28.93662598 175.50683594 29.62036133 C174.90645508 30.32314209 174.30607422 31.02592285 173.6875 31.75 C168.14600267 38.34684981 162.81694394 45.05820423 157.64672852 51.94946289 C155.1680665 55.23502401 152.66161437 58.44365114 149.9296875 61.5234375 C149.45499023 62.06250732 148.98029297 62.60157715 148.49121094 63.15698242 C147.22035357 64.58067878 145.92741065 65.98457561 144.6328125 67.38671875 C142.37837478 70.35318081 142.37837478 70.35318081 144 76 C168.42 76 192.84 76 218 76 C218 88.54 218 101.08 218 114 C202.82 114.33 187.64 114.66 172 115 C179.01011297 125.51801591 179.01011297 125.51801591 186.0390625 136.0234375 C186.63847656 136.91804687 187.23789062 137.81265625 187.85546875 138.734375 C189.07255239 140.55059694 190.29140267 142.36563586 191.51171875 144.1796875 C192.09824219 145.05625 192.68476562 145.9328125 193.2890625 146.8359375 C193.81193848 147.61501465 194.33481445 148.3940918 194.87353516 149.19677734 C196 151 196 151 196 152 C172.57 152 149.14 152 125 152 C113 130 113 130 109.4375 121.1875 C107.29623291 117.39307178 107.29623291 117.39307178 104 115 C95.0601308 112.89497266 86.1405666 113.69089871 77 114 C77 126.54 77 139.08 77 152 C69.74 152 62.48 152 55 152 C49.46550355 141.56352097 44.0141601 131.10654403 38.7722168 120.52050781 C35.35373919 113.64172398 31.78725025 106.84721411 28.13476562 100.08984375 C27.73837891 99.34863281 27.34199219 98.60742188 26.93359375 97.84375 C26.58353271 97.19599609 26.23347168 96.54824219 25.87280273 95.88085938 C24.97193326 93.93951716 24.4498776 92.08803459 24 90 C24.6290625 89.52691406 25.258125 89.05382812 25.90625 88.56640625 C36.35821734 80.49131702 46.54266006 70.63427322 49 57 C50.13883141 45.43272672 47.6312952 35.52142011 40.6875 26.125 C29.74399939 13.28743198 15.90157731 6.63239227 0 2 C0 1.34 0 0.68 0 0 Z " fill="#EE5A23" transform="translate(389,205)"/>
<path d="M0 0 C2.52548792 0.75870751 4.43810109 1.66133618 6.68164062 3.03369141 C7.45950928 3.50476318 8.23737793 3.97583496 9.03881836 4.46118164 C9.86969971 4.97495361 10.70058105 5.48872559 11.55664062 6.01806641 C12.43457275 6.55310791 13.31250488 7.08814941 14.21704102 7.6394043 C17.00221325 9.3404786 19.78013269 11.05289238 22.55664062 12.76806641 C23.43046387 13.30608887 24.30428711 13.84411133 25.20458984 14.3984375 C30.44499663 17.62580323 35.67576897 20.86845524 40.90234375 24.11816406 C45.34687925 26.88087294 49.79537537 29.6371758 54.24414062 32.39306641 C55.01363037 32.8705835 55.78312012 33.34810059 56.57592773 33.84008789 C65.21114816 39.19112837 73.88771034 44.47038679 82.55664062 49.76806641 C82.55664062 35.57806641 82.55664062 21.38806641 82.55664062 6.76806641 C84.20664062 7.42806641 85.85664063 8.08806641 87.55664062 8.76806641 C88.6916375 9.19029228 88.6916375 9.19029228 89.8495636 9.62104797 C96.02390292 12.02207343 102.10737649 14.72319325 106.55664062 19.76806641 C109.60992121 27.35447675 108.34152108 35.99266887 107.74414062 43.95556641 C107.64871833 46.16939601 107.56204602 48.38362108 107.484375 50.59814453 C107.27605807 55.99681651 106.95938529 61.38059343 106.55664062 66.76806641 C107.22066895 66.97334961 107.88469727 67.17863281 108.56884766 67.39013672 C111.20654275 68.606606 112.90660183 69.74623602 115.13427734 71.54443359 C127.69995163 81.45604112 138.02977368 82.4328642 153.68164062 82.01806641 C155.81573135 82.00605707 157.94986009 81.99951456 160.08398438 81.99853516 C165.24414328 81.98451841 170.39813454 81.89730096 175.55664062 81.76806641 C175.55664062 82.42806641 175.55664062 83.08806641 175.55664062 83.76806641 C173.73657227 85.06494141 173.73657227 85.06494141 171.21679688 86.51806641 C169.87004883 87.30697266 169.87004883 87.30697266 168.49609375 88.11181641 C167.54669922 88.65837891 166.59730469 89.20494141 165.61914062 89.76806641 C163.75313996 90.84670892 161.88971425 91.92982226 160.02929688 93.01806641 C159.19664307 93.49759766 158.36398926 93.97712891 157.50610352 94.47119141 C155.4208705 95.62544632 155.4208705 95.62544632 154.55664062 97.76806641 C155.19601562 97.99494141 155.83539062 98.22181641 156.49414062 98.45556641 C160.68984323 100.25372467 164.59564618 102.50710662 168.55664062 104.76806641 C168.68164062 107.14306641 168.68164062 107.14306641 168.55664062 109.76806641 C167.89664062 110.42806641 167.23664063 111.08806641 166.55664062 111.76806641 C160.09247725 111.61850857 155.13813925 108.84122151 149.50585938 105.87744141 C148.54237076 105.38106171 147.57888214 104.88468201 146.5861969 104.3732605 C143.4672993 102.76410413 140.35582274 101.14112448 137.24414062 99.51806641 C135.10052257 98.40934481 132.95631474 97.30176278 130.81152344 96.1953125 C127.63016821 94.55397058 124.44917388 92.91197899 121.27017212 91.26608276 C113.48392777 87.23557178 105.66382102 83.28333637 97.80664062 79.39306641 C90.31722267 75.67362136 82.8926947 71.85987352 75.51464844 67.92480469 C66.15190968 62.9681763 56.64407655 58.29661481 47.16125488 53.57550049 C38.20786742 49.11627858 29.26902731 44.64208724 20.43164062 39.95556641 C19.70058105 39.56981445 18.96952148 39.1840625 18.21630859 38.78662109 C15.25323849 37.21864258 12.30957376 35.62962376 9.38476562 33.99072266 C8.49273437 33.50474609 7.60070312 33.01876953 6.68164062 32.51806641 C5.98296875 32.12103516 5.28429687 31.72400391 4.56445312 31.31494141 C0.3742698 30.17364634 -3.93833239 33.50971285 -7.52148438 35.53369141 C-8.50455566 36.08677979 -9.48762695 36.63986816 -10.50048828 37.2097168 C-11.55413574 37.80647217 -12.6077832 38.40322754 -13.69335938 39.01806641 C-15.95632478 40.29290438 -18.2193472 41.56764116 -20.48242188 42.84228516 C-21.65073698 43.50159069 -22.81903123 44.16093318 -23.98730469 44.8203125 C-28.30724332 47.25493177 -32.63494277 49.67550151 -36.96337891 52.0949707 C-45.92938142 57.1067109 -54.88117509 62.14263331 -63.81835938 67.20556641 C-83.30747308 78.23498107 -102.88528445 89.09401669 -122.63476562 99.65087891 C-126.15867825 101.53479264 -129.66852389 103.43869214 -133.15820312 105.38525391 C-133.84366211 105.76367432 -134.52912109 106.14209473 -135.23535156 106.53198242 C-136.95834791 107.48513406 -138.67578614 108.44831569 -140.39257812 109.41259766 C-143.80349527 110.92807557 -146.72779354 111.50748259 -150.44335938 111.76806641 C-152.44335938 110.58056641 -152.44335938 110.58056641 -153.44335938 108.76806641 C-153.17645499 105.99112505 -152.66766445 104.97482542 -150.59570312 103.06494141 C-149.86480469 102.55447266 -149.13390625 102.04400391 -148.38085938 101.51806641 C-147.64738281 100.99728516 -146.91390625 100.47650391 -146.15820312 99.93994141 C-145.59230469 99.55322266 -145.02640625 99.16650391 -144.44335938 98.76806641 C-149.04920713 93.78066913 -154.34655032 90.31486555 -160 86.60986328 C-160.69931641 86.14257812 -161.39863281 85.67529297 -162.11914062 85.19384766 C-162.75762939 84.77530518 -163.39611816 84.3567627 -164.05395508 83.92553711 C-164.5124585 83.54357178 -164.97096191 83.16160645 -165.44335938 82.76806641 C-165.44335938 82.10806641 -165.44335938 81.44806641 -165.44335938 80.76806641 C-164.86945465 80.79693436 -164.29554993 80.82580231 -163.70425415 80.85554504 C-157.63628437 81.14705766 -151.57034802 81.34074643 -145.49707031 81.48217773 C-143.24266606 81.54686906 -140.98879188 81.63506685 -138.73632812 81.7487793 C-122.41269725 82.55116418 -112.68186823 80.47925571 -100.40286255 69.45722961 C-97.11183481 66.62024367 -93.52612694 64.21766402 -89.94335938 61.76806641 C-84.11071727 57.67762343 -78.33052753 53.51952545 -72.56835938 49.33056641 C-66.36807351 44.82702362 -60.0962185 40.44698004 -53.75585938 36.14306641 C-47.48636587 31.88707283 -41.31796775 27.53123316 -35.23364258 23.01513672 C-27.48681483 17.28383689 -19.56937276 11.78728515 -11.63476562 6.31982422 C-10.22070356 5.318512 -8.82991686 4.2830824 -7.47070312 3.20849609 C-3.01073112 -0.28579082 -3.01073112 -0.28579082 0 0 Z " fill="#3752A3" transform="translate(423.443359375,117.23193359375)"/>
<path d="M0 0 C0.98086578 0.00007553 1.96173157 0.00015106 2.97232056 0.00022888 C4.03381317 0.00539017 5.09530579 0.01055145 6.18896484 0.01586914 C7.8161293 0.01799156 7.8161293 0.01799156 9.47616577 0.02015686 C12.95077234 0.02576737 16.42531515 0.03832167 19.89990234 0.05102539 C22.25146392 0.05603904 24.60302649 0.06060218 26.95458984 0.06469727 C32.72807184 0.07489056 38.50141548 0.09446399 44.27490234 0.11352539 C44.27490234 12.65352539 44.27490234 25.19352539 44.27490234 38.11352539 C29.09490234 38.44352539 13.91490234 38.77352539 -1.72509766 39.11352539 C5.28501531 49.6315413 5.28501531 49.6315413 12.31396484 60.13696289 C12.91337891 61.03157227 13.51279297 61.92618164 14.13037109 62.84790039 C15.34745473 64.66412233 16.56630502 66.47916125 17.78662109 68.29321289 C18.66640625 69.60805664 18.66640625 69.60805664 19.56396484 70.94946289 C20.08684082 71.72854004 20.6097168 72.50761719 21.1484375 73.31030273 C22.27490234 75.11352539 22.27490234 75.11352539 22.27490234 76.11352539 C-1.15509766 76.11352539 -24.58509766 76.11352539 -48.72509766 76.11352539 C-60.72509766 54.11352539 -60.72509766 54.11352539 -64.28759766 45.30102539 C-66.42886474 41.50659717 -66.42886474 41.50659717 -69.72509766 39.11352539 C-78.66496686 37.00849805 -87.58453106 37.8044241 -96.72509766 38.11352539 C-96.72509766 50.65352539 -96.72509766 63.19352539 -96.72509766 76.11352539 C-103.98509766 76.11352539 -111.24509766 76.11352539 -118.72509766 76.11352539 C-122.07181746 69.78684961 -125.40747343 63.45538692 -128.72509766 57.11352539 C-129.10279297 56.39503418 -129.48048828 55.67654297 -129.86962891 54.9362793 C-130.8513837 53.0623962 -131.82155628 51.18304608 -132.78759766 49.30102539 C-133.33544922 48.24270508 -133.88330078 47.18438477 -134.44775391 46.09399414 C-135.74568353 43.06549168 -136.33033945 40.37393573 -136.72509766 37.11352539 C-135.03759766 35.55102539 -135.03759766 35.55102539 -132.72509766 34.11352539 C-130.47509766 34.42602539 -130.47509766 34.42602539 -127.72509766 35.11352539 C-122.56453044 35.55522093 -122.56453044 35.55522093 -117.72509766 34.05102539 C-114.39402571 32.48958541 -111.29061848 33.51927192 -107.72509766 34.11352539 C-107.60134766 33.37102539 -107.47759766 32.62852539 -107.35009766 31.86352539 C-106.72509766 29.11352539 -106.72509766 29.11352539 -104.72509766 25.11352539 C-100.76509766 25.11352539 -96.80509766 25.11352539 -92.72509766 25.11352539 C-91.73509766 28.74352539 -90.74509766 32.37352539 -89.72509766 36.11352539 C-85.52329582 35.53955149 -85.52329582 35.53955149 -83.72509766 32.11352539 C-83.06509766 32.11352539 -82.40509766 32.11352539 -81.72509766 32.11352539 C-81.72509766 32.77352539 -81.72509766 33.43352539 -81.72509766 34.11352539 C-80.07509766 34.11352539 -78.42509766 34.11352539 -76.72509766 34.11352539 C-76.72509766 30.15352539 -76.72509766 26.19352539 -76.72509766 22.11352539 C-73.41259766 21.80102539 -73.41259766 21.80102539 -69.72509766 22.11352539 C-67.47583312 24.75059416 -66.74619995 27.04037076 -65.78759766 30.36352539 C-65.43697266 31.27102539 -65.08634766 32.17852539 -64.72509766 33.11352539 C-62.70488106 33.82588283 -62.70488106 33.82588283 -60.72509766 34.11352539 C-61.34505766 32.34092129 -61.97125759 30.57049872 -62.60009766 28.80102539 C-62.94814453 27.81489258 -63.29619141 26.82875977 -63.65478516 25.81274414 C-64.6781569 22.95758162 -64.6781569 22.95758162 -66.72509766 20.11352539 C-61.10009766 17.11352539 -61.10009766 17.11352539 -57.72509766 17.11352539 C-57.72509766 20.41352539 -57.72509766 23.71352539 -57.72509766 27.11352539 C-55.74509766 27.60852539 -55.74509766 27.60852539 -53.72509766 28.11352539 C-52.37141169 29.42619057 -51.0371017 30.75919864 -49.72509766 32.11352539 C-47.13252096 32.97771762 -45.38472058 33.28933471 -42.71337891 33.42993164 C-41.57739258 33.49277344 -41.57739258 33.49277344 -40.41845703 33.55688477 C-39.63277344 33.59620117 -38.84708984 33.63551758 -38.03759766 33.67602539 C-36.84166992 33.74080078 -36.84166992 33.74080078 -35.62158203 33.80688477 C-33.65628319 33.91279907 -31.69071269 34.0136509 -29.72509766 34.11352539 C-29.72509766 29.49352539 -29.72509766 24.87352539 -29.72509766 20.11352539 C-28.73509766 19.61852539 -28.73509766 19.61852539 -27.72509766 19.11352539 C-26.73509766 24.06352539 -26.73509766 24.06352539 -25.72509766 29.11352539 C-23.74509766 29.60852539 -23.74509766 29.60852539 -21.72509766 30.11352539 C-21.02384766 30.62915039 -20.32259766 31.14477539 -19.60009766 31.67602539 C-15.3290324 33.81155802 -11.41129933 33.78190992 -6.72509766 33.11352539 C-2.96141993 31.33433228 -1.218831 29.82120985 1.14990234 26.42602539 C2.9682134 21.07210949 3.28115919 16.30899487 0.89990234 11.11352539 C-0.57595797 9.01635862 -0.57595797 9.01635862 -2.72509766 8.11352539 C-2.72509766 6.79352539 -2.72509766 5.47352539 -2.72509766 4.11352539 C-4.70509766 3.61852539 -4.70509766 3.61852539 -6.72509766 3.11352539 C-6.72509766 2.45352539 -6.72509766 1.79352539 -6.72509766 1.11352539 C-4.28542269 -0.10631209 -2.72605241 -0.00698988 0 0 Z " fill="#EF5922" transform="translate(562.72509765625,280.886474609375)"/>
<path d="M0 0 C7.79589079 -0.23034477 15.57987423 -0.42910254 23.37646484 -0.54931641 C26.02465926 -0.59944098 28.67257919 -0.66756201 31.31982422 -0.75439453 C35.13838492 -0.8764621 38.9532741 -0.93257485 42.7734375 -0.9765625 C43.94675629 -1.02817535 45.12007507 -1.07978821 46.32894897 -1.13296509 C51.52599065 -1.13646862 54.75147206 -0.94764943 58.97442627 2.25762939 C61.45163681 4.74725842 63.72384578 7.32861648 66 10 C66.99 10.495 66.99 10.495 68 11 C69 12.66666667 70 14.33333333 71 16 C73.87792199 20.07499182 73.87792199 20.07499182 77.8984375 22.859375 C80.76456705 24.41496948 82.19986761 26.48835313 84.1875 29.0625 C87.92380259 33.77780061 91.87904309 37.99687403 96.25 42.125 C98 44 98 44 99 47 C66.33 47 33.66 47 0 47 C0 31.49 0 15.98 0 0 Z " fill="#EC5926" transform="translate(617,236)"/>
<path d="M0 0 C6.75838217 4.03231205 10.95909981 9.43549414 13.375 16.9375 C15.10711701 25.61251935 14.40996693 32.9880966 9.8125 40.625 C5.07846528 47.1974948 -1.28595589 51.39882443 -9.3046875 52.75390625 C-18.38808369 53.47262615 -24.82188998 51.06510653 -32.3125 46.1875 C-37.77327863 40.87430998 -40.71550093 35.02732706 -40.91699219 27.38989258 C-40.98380625 20.41816375 -40.88180014 14.73147798 -36.625 8.9375 C-36.0475 8.050625 -35.47 7.16375 -34.875 6.25 C-26.02535339 -2.84547013 -11.59302569 -5.39827914 0 0 Z " fill="#EF5921" transform="translate(348.625,362.0625)"/>
<path d="M0 0 C6.53380754 4.88553304 10.66148767 10.52383122 12.15234375 18.609375 C13.03039491 26.45000081 12.00188318 33.46215799 7.48828125 40.03125 C1.79063413 46.97738554 -4.04155937 50.2620569 -12.91015625 51.484375 C-20.27872261 51.95203943 -26.91623541 50.14831781 -32.84765625 45.609375 C-39.76737813 39.03349023 -42.94553638 33.33433353 -43.34765625 23.796875 C-43.13387846 15.73317671 -41.17756234 10.24533864 -35.72265625 4.2890625 C-26.03964961 -4.83782551 -11.78000264 -6.9778385 0 0 Z " fill="#F05921" transform="translate(453.84765625,363.390625)"/>
<path d="M0 0 C6.98605646 4.41062284 12.40080425 10.31467813 14.4375 18.4375 C15.56796417 27.54520186 14.71562334 34.82482211 9.4375 42.4375 C3.94071811 48.92088377 -2.14246148 52.5397253 -10.5625 53.4375 C-18.74224433 53.6723252 -26.2792914 51.30591366 -32.41796875 45.76171875 C-38.29083951 39.22180588 -40.93898729 32.41662391 -40.7734375 23.609375 C-40.04822484 16.14237061 -36.77397918 9.77693961 -31.5625 4.4375 C-23.06600134 -2.04751697 -10.10886699 -4.67485153 0 0 Z " fill="#F05921" transform="translate(664.5625,361.5625)"/>
<path d="M0 0 C46.53 0 93.06 0 141 0 C141 3.96 141 7.92 141 12 C125.29194641 11.37093778 109.65076058 10.25876165 93.984375 8.96875 C91.54732404 8.77052454 89.11025082 8.57257256 86.67315674 8.37487793 C81.61054016 7.96348824 76.54811698 7.5498228 71.48583984 7.13427734 C65.01380901 6.60305464 58.54143825 6.07611909 52.06893539 5.55068207 C47.0553255 5.14346882 42.04183651 4.73478378 37.02838898 4.32557678 C34.6410977 4.13075049 32.25378415 3.93619694 29.86644745 3.7419281 C26.53682718 3.47060369 23.20735894 3.19748531 19.87792969 2.92382812 C18.90534714 2.8448378 17.93276459 2.76584747 16.93070984 2.6844635 C11.2739366 2.21724042 5.63846145 1.65277112 0 1 C0 0.67 0 0.34 0 0 Z " fill="#38529F" transform="translate(114,248)"/>
<path d="M0 0 C16.83 0 33.66 0 51 0 C49.02 2.64 47.04 5.28 45 8 C42.99996347 11.90483323 42.59036172 15.67572654 42 20 C37.94751078 20.12543419 33.89580273 20.21518042 29.84179688 20.2746582 C28.46854934 20.29950103 27.09542965 20.33338887 25.72265625 20.37719727 C15.81885411 20.68488118 8.90459812 19.40375374 0 15 C0 10.05 0 5.1 0 0 Z " fill="#3753A1" transform="translate(256,362)"/>
<path d="M0 0 C0.77715237 0.00085602 1.55430473 0.00171204 2.35500717 0.00259399 C11.90336593 0.01390043 21.45167485 0.03467355 31 0.0625 C31 4.0225 31 7.9825 31 12.0625 C23.51731342 12.13998601 16.17221209 11.88264588 8.71704102 11.26806641 C7.64896713 11.18349686 6.58089325 11.09892731 5.48045349 11.01179504 C1.98787994 10.73387146 -1.50411595 10.44936731 -4.99609375 10.1640625 C-7.43700479 9.96692275 -9.87792805 9.76993416 -12.31886292 9.5730896 C-17.41522832 9.1609115 -22.51128606 8.74514075 -27.60717773 8.32714844 C-34.14234479 7.79164638 -40.67839601 7.26789661 -47.21475124 6.74712563 C-52.24657339 6.34446675 -57.27775923 5.93426205 -62.30879402 5.52189255 C-64.7195601 5.32547572 -67.13054613 5.13173952 -69.54174614 4.94072342 C-72.90279785 4.67359841 -76.26282647 4.39600778 -79.62280273 4.11572266 C-80.61972137 4.03875656 -81.61664001 3.96179047 -82.64376831 3.88249207 C-83.55892715 3.80401535 -84.474086 3.72553864 -85.41697693 3.64468384 C-86.21018058 3.58015833 -87.00338423 3.51563282 -87.82062435 3.44915199 C-90.17969145 3.0306202 -91.92051159 2.23189114 -94 1.0625 C-62.66308901 0.34655004 -31.34427565 -0.03477385 0 0 Z " fill="#3753A1" transform="translate(224,274.9375)"/>
<path d="M0 0 C7.65809552 -0.02314591 15.31618742 -0.0409266 22.97430992 -0.05181217 C26.53008635 -0.05703606 30.08583889 -0.06412478 33.64160156 -0.07543945 C37.72721591 -0.08835914 41.81280506 -0.09323229 45.8984375 -0.09765625 C47.81878311 -0.10539818 47.81878311 -0.10539818 49.77792358 -0.11329651 C50.95899689 -0.11337204 52.14007019 -0.11344757 53.35693359 -0.11352539 C54.92246475 -0.11685631 54.92246475 -0.11685631 56.5196228 -0.12025452 C59 0 59 0 61 1 C61.72693904 2.97888961 62.39816251 4.97954558 63 7 C62.27474121 6.18958252 61.54948242 5.37916504 60.80224609 4.54418945 C55.96302024 0.54371924 50.15255929 1.27324399 44.1640625 1.29296875 C42.92957367 1.27784744 41.69508484 1.26272614 40.42318726 1.24714661 C36.49027267 1.20424769 32.55812532 1.19542872 28.625 1.1875 C25.95435759 1.16711712 23.28386634 1.13899325 20.61328125 1.11132812 C14.07510234 1.0442803 7.53906494 1.02333865 1 1 C1 16.51 1 32.02 1 48 C33.34 47.67 65.68 47.34 99 47 C94.28273405 41.60883892 89.53973809 36.28494534 84.65625 31.05078125 C81.10702413 27.21404825 81.10702413 27.21404825 80 25 C79.39671875 24.70996094 78.7934375 24.41992188 78.171875 24.12109375 C75.59645151 22.79169349 74.14925645 21.24177503 72.25 19.0625 C71.63640625 18.37285156 71.0228125 17.68320313 70.390625 16.97265625 C69 15 69 15 69 12 C67.68 11.34 66.36 10.68 65 10 C65.99 9.67 66.98 9.34 68 9 C68 8.34 68 7.68 68 7 C67.34 7 66.68 7 66 7 C66 5.35 66 3.7 66 2 C69.13879381 3.3875818 71.22254795 4.99523408 73.609375 7.44921875 C74.28226563 8.13306641 74.95515625 8.81691406 75.6484375 9.52148438 C76.34195313 10.23626953 77.03546875 10.95105469 77.75 11.6875 C82.39339983 16.45007455 87.08739382 21.03223403 92.12988281 25.37231445 C94.85129507 27.74093789 97.42715396 30.22003472 100 32.75 C100.48855469 33.21792969 100.97710938 33.68585938 101.48046875 34.16796875 C102.71372518 35.38740718 103.86444261 36.68909919 105 38 C105 38.99 105 39.98 105 41 C103.35 41.66 101.7 42.32 100 43 C100.185625 43.969375 100.37125 44.93875 100.5625 45.9375 C100.7790625 47.4534375 100.7790625 47.4534375 101 49 C99.06993755 50.93006245 96.17276871 50.12683226 93.60401917 50.13552856 C92.68346237 50.13350433 91.76290558 50.1314801 90.81445312 50.12939453 C89.85030991 50.13114685 88.88616669 50.13289917 87.89280701 50.13470459 C84.68893664 50.13912493 81.48512098 50.13618447 78.28125 50.1328125 C76.06547027 50.13348549 73.84969061 50.13445547 71.63391113 50.13571167 C66.98330993 50.13718889 62.33272789 50.13503331 57.68212891 50.13037109 C51.70617396 50.1246738 45.73026391 50.12795267 39.75431061 50.13394356 C35.17685606 50.13754852 30.59941225 50.13641088 26.0219574 50.13381577 C23.81782526 50.13314632 21.61369217 50.13397554 19.40956116 50.13629532 C16.33486328 50.13882078 13.26023922 50.13498275 10.18554688 50.12939453 C9.26499008 50.13141876 8.34443329 50.13344299 7.39598083 50.13552856 C1.11426228 50.11426228 1.11426228 50.11426228 0 49 C-0.09319449 47.4651703 -0.117458 45.92607918 -0.11352539 44.38842773 C-0.11344986 43.40748642 -0.11337433 42.4265451 -0.11329651 41.4158783 C-0.10813522 40.3492244 -0.10297394 39.2825705 -0.09765625 38.18359375 C-0.0962413 37.0974025 -0.09482635 36.01121124 -0.09336853 34.8921051 C-0.08775048 31.40720925 -0.07519492 27.92237658 -0.0625 24.4375 C-0.05748733 22.08138113 -0.05292402 19.72526126 -0.04882812 17.36914062 C-0.03777519 11.57940536 -0.02101951 5.78970719 0 0 Z " fill="#3D529E" transform="translate(616,235)"/>
<path d="M0 0 C2.37462907 1.45838019 4.66044479 2.99863635 6.94042969 4.60107422 C11.64151186 7.70748229 16.72563682 10.10670706 21.7585144 12.62219238 C24.89149397 14.20054078 27.9973718 15.83038587 31.10546875 17.45703125 C36.03797894 20.03183023 40.9778718 22.59164241 45.92578125 25.13671875 C57.95526968 31.33152034 69.9132845 37.59547709 81.625 44.375 C80.635 44.87 80.635 44.87 79.625 45.375 C77.05102364 44.32642835 74.5948994 43.21032475 72.1015625 41.9921875 C71.33663986 41.62638077 70.57171722 41.26057404 69.78361511 40.88368225 C67.26897542 39.67947233 64.75962409 38.46462307 62.25 37.25 C59.64264382 35.99882859 57.03393953 34.75049815 54.42518616 33.50224304 C52.67095264 32.66259395 50.91716012 31.8220229 49.1638031 30.98054504 C40.49246889 26.82095817 31.7748849 22.76641722 23.03686523 18.74902344 C17.96567863 16.41260004 12.92119227 14.0457243 7.9296875 11.54296875 C7.05723389 11.11056885 6.18478027 10.67816895 5.28588867 10.23266602 C3.70544313 9.44501726 2.1318257 8.64341402 0.56762695 7.82397461 C-0.12113525 7.48245361 -0.80989746 7.14093262 -1.51953125 6.7890625 C-2.10065674 6.4895166 -2.68178223 6.1899707 -3.28051758 5.88134766 C-9.65124983 4.34120327 -15.36208858 7.52856576 -20.84887695 10.35986328 C-21.66598648 10.77126556 -22.48309601 11.18266785 -23.32496643 11.60653687 C-25.08905479 12.49639041 -26.85080983 13.39088182 -28.61043739 14.28952408 C-31.39198151 15.7099688 -34.17947701 17.11805329 -36.96879578 18.52316284 C-42.88073474 21.50423586 -48.78431019 24.50164941 -54.6875 27.5 C-61.54554493 30.98094689 -68.40687381 34.45521592 -75.2745266 37.91717148 C-78.02676803 39.30817603 -80.77386064 40.7089981 -83.52082825 42.11038208 C-85.19636078 42.95700536 -86.87210498 43.80320992 -88.5480957 44.64892578 C-89.31536987 45.04368103 -90.08264404 45.43843628 -90.87316895 45.84515381 C-92.67770734 46.74965105 -94.52324474 47.57158447 -96.375 48.375 C-97.035 48.045 -97.695 47.715 -98.375 47.375 C-90.95910355 42.84519498 -83.42025784 38.57299443 -75.8125 34.375 C-73.4044696 33.04252989 -70.99716863 31.70874421 -68.58984375 30.375 C-67.98381317 30.03944092 -67.37778259 29.70388184 -66.75338745 29.3581543 C-61.80214549 26.61544374 -56.86032344 23.85624682 -51.92651367 21.08227539 C-49.89184564 19.94390964 -47.8515933 18.8154682 -45.8059082 17.69702148 C-40.82602459 14.96018713 -35.9601283 12.14721887 -31.22634888 9.0065918 C-9.71358974 -5.24194825 -9.71358974 -5.24194825 0 0 Z " fill="#39529E" transform="translate(434.375,152.625)"/>
<path d="M0 0 C15.51 0 31.02 0 47 0 C44.69 3.63 42.38 7.26 40 11 C39.01 13.97 38.02 16.94 37 20 C28.09 20 19.18 20 10 20 C9.01 17.03 8.02 14.06 7 11 C5.77640032 8.54030891 5.77640032 8.54030891 4.4375 6.625 C3.81681641 5.68527344 3.81681641 5.68527344 3.18359375 4.7265625 C2.79300781 4.15679687 2.40242188 3.58703125 2 3 C1.34 2.01 0.68 1.02 0 0 Z " fill="#3852A1" transform="translate(363,362)"/>
<path d="M0 0 C0 3.63 0 7.26 0 11 C-10.98852691 10.23552338 -21.97701791 9.47053271 -32.96546459 8.7049036 C-38.06900018 8.34932639 -43.17254753 7.99391969 -48.27612305 7.63891602 C-53.2104253 7.29568043 -58.14469495 6.95197952 -63.07894325 6.60796928 C-64.95217063 6.47744957 -66.82540929 6.34709154 -68.6986599 6.21690559 C-78.80215336 5.51462863 -88.90360573 4.7989973 -99 4 C-98.67 3.34 -98.34 2.68 -98 2 C-87.8544766 1.65696029 -77.70864879 1.32396328 -67.5625 1 C-66.8187273 0.9762455 -66.07495461 0.952491 -65.30864334 0.92801666 C-43.53398775 0.2355217 -21.78799871 -0.3105178 0 0 Z " fill="#3853A0" transform="translate(255,302)"/>
<path d="M0 0 C0.72920654 0.29229492 1.45841309 0.58458984 2.2097168 0.88574219 C3.90635843 1.56327062 5.6062624 2.23279861 7.31176758 2.88769531 C13.3763832 5.33258274 19.67906923 7.93999377 24 13 C26.32171325 20.06456795 25.17890295 27.78625946 24 35 C22.02 34.67 20.04 34.34 18 34 C18 33.34 18 32.68 18 32 C17.28070312 31.88527344 16.56140625 31.77054688 15.8203125 31.65234375 C12.87038469 30.97001973 10.56144771 29.94680104 7.875 28.5625 C6.60269531 27.91474609 6.60269531 27.91474609 5.3046875 27.25390625 C3 26 3 26 0 24 C-0.34057617 21.56982422 -0.34057617 21.56982422 -0.29296875 18.5546875 C-0.28330078 17.47832031 -0.27363281 16.40195313 -0.26367188 15.29296875 C-0.23853516 14.16503906 -0.21339844 13.03710938 -0.1875 11.875 C-0.17396484 10.73933594 -0.16042969 9.60367188 -0.14648438 8.43359375 C-0.11104319 5.62192613 -0.06163517 2.81119583 0 0 Z " fill="#3E529B" transform="translate(506,124)"/>
<path d="M0 0 C13.56 0 13.56 0 18 3 C19 4 19 4 19.3125 7.25 C18.95628972 11.52452339 17.93261437 12.97574144 15 16 C15.45375 16.474375 15.9075 16.94875 16.375 17.4375 C18.6701934 21.05684343 19.24134665 24.8229439 20 29 C17.64453125 28.81640625 17.64453125 28.81640625 15 28 C13.63671875 25.71484375 13.63671875 25.71484375 12.6875 22.9375 C12.36136719 22.01839844 12.03523438 21.09929687 11.69921875 20.15234375 C11.46847656 19.44207031 11.23773438 18.73179687 11 18 C8.69 17.67 6.38 17.34 4 17 C4 20.96 4 24.92 4 29 C2.68 29 1.36 29 0 29 C0 19.43 0 9.86 0 0 Z " fill="#FEEBD8" transform="translate(482,286)"/>
<path d="M0 0 C3.47565519 2.01712132 5.70453512 4.11360536 7 8 C7.3711875 13.01103128 7.11788946 15.99128499 4 20 C1.37862406 22.81555194 -0.03096977 23.00393267 -3.9375 23.5 C-7.4532712 23.38193306 -8.00327623 22.99735113 -10.9375 20.625 C-14.47173044 16.12688853 -14.54180776 12.5922301 -14 7 C-12.7530291 4.06961838 -11.77654345 2.58240759 -9.25 0.6875 C-5.9260257 -0.32815881 -3.46313738 -0.41796486 0 0 Z " fill="#EC5E2B" transform="translate(555,289)"/>
<path d="M0 0 C1.65 0 3.3 0 5 0 C5.33773438 0.83144531 5.67546875 1.66289062 6.0234375 2.51953125 C6.46945312 3.60621094 6.91546875 4.69289063 7.375 5.8125 C7.81585938 6.89144531 8.25671875 7.97039062 8.7109375 9.08203125 C9.9479119 12.10730112 9.9479119 12.10730112 12 15 C13.98 10.05 15.96 5.1 18 0 C19.98 0 21.96 0 24 0 C24.84800767 7.692641 25.12152487 15.26291674 25 23 C23.68 23 22.36 23 21 23 C20.93941406 22.14535156 20.87882812 21.29070312 20.81640625 20.41015625 C20.69072266 18.75306641 20.69072266 18.75306641 20.5625 17.0625 C20.48128906 15.96035156 20.40007812 14.85820312 20.31640625 13.72265625 C20.29581916 11.08890097 20.29581916 11.08890097 19 10 C18.54560547 11.28197266 18.54560547 11.28197266 18.08203125 12.58984375 C17.66308594 13.69457031 17.24414062 14.79929687 16.8125 15.9375 C16.20341797 17.59072266 16.20341797 17.59072266 15.58203125 19.27734375 C15.05996094 20.17582031 14.53789062 21.07429688 14 22 C12.35 22.33 10.7 22.66 9 23 C7.35 18.71 5.7 14.42 4 10 C3.34 14.29 2.68 18.58 2 23 C0.68 23 -0.64 23 -2 23 C-1.86111494 19.72883268 -1.71269508 16.458166 -1.5625 13.1875 C-1.52318359 12.25873047 -1.48386719 11.32996094 -1.44335938 10.37304688 C-1.40146484 9.48037109 -1.35957031 8.58769531 -1.31640625 7.66796875 C-1.27974854 6.84578857 -1.24309082 6.0236084 -1.20532227 5.17651367 C-1 3 -1 3 0 0 Z " fill="#E95B26" transform="translate(469,425)"/>
<path d="M0 0 C5.28 0 10.56 0 16 0 C16 6.93 16 13.86 16 21 C10.72 21 5.44 21 0 21 C0 14.07 0 7.14 0 0 Z " fill="#3753A1" transform="translate(428,180)"/>
<path d="M0 0 C5.28 0 10.56 0 16 0 C16 6.93 16 13.86 16 21 C10.72 21 5.44 21 0 21 C0 14.07 0 7.14 0 0 Z " fill="#3653A4" transform="translate(409,180)"/>
<path d="M0 0 C7.65809552 -0.02314591 15.31618742 -0.0409266 22.97430992 -0.05181217 C26.53008635 -0.05703606 30.08583889 -0.06412478 33.64160156 -0.07543945 C37.72721591 -0.08835914 41.81280506 -0.09323229 45.8984375 -0.09765625 C47.81878311 -0.10539818 47.81878311 -0.10539818 49.77792358 -0.11329651 C50.95899689 -0.11337204 52.14007019 -0.11344757 53.35693359 -0.11352539 C54.92246475 -0.11685631 54.92246475 -0.11685631 56.5196228 -0.12025452 C59 0 59 0 61 1 C61.72693904 2.97888961 62.39816251 4.97954558 63 7 C62.27474121 6.18958252 61.54948242 5.37916504 60.80224609 4.54418945 C55.96302024 0.54371924 50.15255929 1.27324399 44.1640625 1.29296875 C42.92957367 1.27784744 41.69508484 1.26272614 40.42318726 1.24714661 C36.49027267 1.20424769 32.55812532 1.19542872 28.625 1.1875 C25.95435759 1.16711712 23.28386634 1.13899325 20.61328125 1.11132812 C14.07510234 1.0442803 7.53906494 1.02333865 1 1 C1 16.51 1 32.02 1 48 C33.67 48 66.34 48 100 48 C100 48.66 100 49.32 100 50 C87.10927745 50.0231211 74.2185598 50.04091389 61.32782078 50.05181217 C55.34280734 50.05704151 49.35780804 50.06414008 43.37280273 50.07543945 C37.60216571 50.08626653 31.83154232 50.09227645 26.06089592 50.09487724 C23.85397057 50.09673182 21.647046 50.10035304 19.44012642 50.10573006 C16.36053959 50.1129381 13.28100986 50.11399104 10.20141602 50.11352539 C9.27928818 50.11712067 8.35716034 50.12071594 7.40708923 50.12442017 C1.11405216 50.11405216 1.11405216 50.11405216 0 49 C-0.09319449 47.4651703 -0.117458 45.92607918 -0.11352539 44.38842773 C-0.11344986 43.40748642 -0.11337433 42.4265451 -0.11329651 41.4158783 C-0.10813522 40.3492244 -0.10297394 39.2825705 -0.09765625 38.18359375 C-0.0962413 37.0974025 -0.09482635 36.01121124 -0.09336853 34.8921051 C-0.08775048 31.40720925 -0.07519492 27.92237658 -0.0625 24.4375 C-0.05748733 22.08138113 -0.05292402 19.72526126 -0.04882812 17.36914062 C-0.03777519 11.57940536 -0.02101951 5.78970719 0 0 Z " fill="#584B76" transform="translate(616,235)"/>
<path d="M0 0 C26.07 0 52.14 0 79 0 C79 2.31 79 4.62 79 7 C70.25027903 7.17963499 61.63410721 6.47175505 52.9296875 5.6875 C51.39701618 5.55259908 49.86431084 5.41808413 48.33157349 5.28393555 C44.32989431 4.93266964 40.32869389 4.57621942 36.32757568 4.21862793 C32.23168483 3.85351131 28.1353557 3.49338198 24.0390625 3.1328125 C16.02560843 2.42671092 8.01265401 1.71512298 0 1 C0 0.67 0 0.34 0 0 Z " fill="#3A529C" transform="translate(176,330)"/>
<path d="M0 0 C3.42942659 1.94042212 5.32909214 3.49197789 6.6875 7.3125 C7.42536977 13.00463824 6.96576889 17.45161854 3.6875 22.3125 C-1.2373496 26.75687647 -4.26411487 27.6688486 -10.76953125 27.59375 C-15.49362709 27.07126935 -18.09828919 24.64813189 -21.1875 21.25 C-23.27363039 15.80288176 -23.23132706 9.85278658 -21.25 4.375 C-15.13921553 -2.13002862 -8.09037873 -3.63029815 0 0 Z M-17.0625 5.375 C-18.79099393 9.43696075 -19.02374122 12.9609274 -18.3125 17.3125 C-16.08811281 21.58653857 -16.08811281 21.58653857 -12.3125 24.3125 C-7.59147422 24.78460258 -4.65294655 25.04614092 -0.875 22 C2.1611549 18.81573998 2.61576688 17.28089717 2.9375 12.9375 C2.60933395 8.17909228 1.19638217 5.87527082 -2.0625 2.5 C-7.56103656 -0.4020054 -13.16610871 0.78282455 -17.0625 5.375 Z " fill="#FEECD7" transform="translate(559.3125,287.6875)"/>
<path d="M0 0 C1.30324219 -0.00386719 1.30324219 -0.00386719 2.6328125 -0.0078125 C4.875 0.125 4.875 0.125 6.875 1.125 C6.875 2.115 6.875 3.105 6.875 4.125 C5.99457031 4.09019531 5.11414063 4.05539062 4.20703125 4.01953125 C2.46486328 3.97892578 2.46486328 3.97892578 0.6875 3.9375 C-0.46105469 3.90269531 -1.60960937 3.86789062 -2.79296875 3.83203125 C-6.43591361 4.15233707 -8.22526708 4.9488894 -11.125 7.125 C-13.59675334 10.94498244 -13.36687621 14.67727907 -12.70703125 19.03515625 C-12.20220155 21.33748748 -12.20220155 21.33748748 -10.25 23.625 C-5.6749788 25.82101017 -1.1473847 25.9490846 3.875 26.125 C3.875 23.155 3.875 20.185 3.875 17.125 C1.565 17.125 -0.745 17.125 -3.125 17.125 C-3.125 16.135 -3.125 15.145 -3.125 14.125 C0.505 14.125 4.135 14.125 7.875 14.125 C7.875 18.745 7.875 23.365 7.875 28.125 C2.23780641 30.00406453 -4.73022648 30.18370903 -10.4296875 28.40625 C-14.22811447 26.38476955 -16.64202874 24.13774577 -18.125 20.125 C-18.80135093 15.07773118 -18.70122855 11.29879889 -16.4375 6.6875 C-11.65573232 1.38878446 -6.94657638 -0.02073605 0 0 Z " fill="#FEE9D8" transform="translate(524.125,285.875)"/>
<path d="M0 0 C2 2 2 2 2.375 4.875 C1.92491816 8.62568199 0.87398748 9.66488517 -2 12 C-0.35 12.99 1.3 13.98 3 15 C3.66 13.35 4.32 11.7 5 10 C6.32 10.33 7.64 10.66 9 11 C8.83242188 11.61488281 8.66484375 12.22976563 8.4921875 12.86328125 C8.28851563 13.67152344 8.08484375 14.47976563 7.875 15.3125 C7.66617187 16.11300781 7.45734375 16.91351563 7.2421875 17.73828125 C6.72572666 20.28207233 6.72572666 20.28207233 9 23 C6 23 3 23 0 23 C-1.15822266 23.05220703 -1.15822266 23.05220703 -2.33984375 23.10546875 C-3.19707031 23.13253906 -4.05429687 23.15960938 -4.9375 23.1875 C-6.21947266 23.23970703 -6.21947266 23.23970703 -7.52734375 23.29296875 C-10.55402333 22.93435743 -11.86667838 22.15784256 -14 20 C-14.25 16.3125 -14.25 16.3125 -14 13 C-12.68 12.34 -11.36 11.68 -10 11 C-10.33 10.34 -10.66 9.68 -11 9 C-11.25 5.5 -11.25 5.5 -11 2 C-6.93150591 -0.71232939 -4.83523216 -0.30699887 0 0 Z M-5 2 C-5.99 2.99 -6.98 3.98 -8 5 C-7.34 6.32 -6.68 7.64 -6 9 C-4.00016466 8.20882096 -4.00016466 8.20882096 -2 7 C-1.67 6.01 -1.34 5.02 -1 4 C-2.32 3.34 -3.64 2.68 -5 2 Z M-9 13 C-9.67958603 15.39719432 -9.67958603 15.39719432 -10 18 C-8.04366025 20.41121859 -8.04366025 20.41121859 -4.375 20.125 C-3.26125 20.08375 -2.1475 20.0425 -1 20 C-0.67 19.34 -0.34 18.68 0 18 C-1.3921875 16.7625 -1.3921875 16.7625 -2.8125 15.5 C-3.33457031 15.0359375 -3.85664063 14.571875 -4.39453125 14.09375 C-6.089448 12.71848759 -6.089448 12.71848759 -9 13 Z " fill="#E85B28" transform="translate(448,425)"/>
<path d="M0 0 C3.00197464 1.80118478 4.45166366 2.90332732 6 6 C6.42308538 10.59698532 6.53894467 14.70653278 4.75 19 C2.35282473 21.73962887 0.23228019 22.80682076 -3.3671875 23.37109375 C-7.791729 23.48825451 -11.01062707 23.54275862 -14.5625 20.6875 C-17.45445475 17.49893451 -17.93456373 15.88338958 -18.25 11.625 C-17.92816806 6.95843688 -16.66646396 4.51931482 -13.23046875 1.38671875 C-9.16726132 -1.13944349 -4.61608565 -0.63599402 0 0 Z M-11.375 4.625 C-13.39937804 7.58370637 -13.92821217 9.41060866 -14 13 C-12.43616066 17.3105786 -12.43616066 17.3105786 -9 20 C-5.58428147 20.50031206 -5.58428147 20.50031206 -2 20 C1.19688909 17.29494 1.90802205 15.64384566 2.5 11.5 C1.90802205 7.35615434 1.19688909 5.70506 -2 3 C-5.97348433 2.3614043 -8.02269318 2.33131639 -11.375 4.625 Z " fill="#EA5B25" transform="translate(515,425)"/>
<path d="M0 0 C1.8975 -0.061875 3.795 -0.12375 5.75 -0.1875 C7.35101562 -0.23970703 7.35101562 -0.23970703 8.984375 -0.29296875 C12.33542267 0.0325864 13.67281781 0.60026776 16 3 C16.31900332 6.12623255 16.41441874 8.17116253 15 11 C14.34 11 13.68 11 13 11 C13.474375 11.86625 13.94875 12.7325 14.4375 13.625 C15.93234895 16.85387374 16.58218313 19.49033826 17 23 C15.35 22.67 13.7 22.34 12 22 C11.34 19.36 10.68 16.72 10 14 C7.03 13.505 7.03 13.505 4 13 C4 16.3 4 19.6 4 23 C2.68 23 1.36 23 0 23 C0 15.41 0 7.82 0 0 Z M4 3 C4 5.31 4 7.62 4 10 C6.91652174 10.16681109 6.91652174 10.16681109 10 10 C10.66 9.34 11.32 8.68 12 8 C11.59471099 5.21762345 11.59471099 5.21762345 10 3 C8.00041636 2.95919217 5.99954746 2.95745644 4 3 Z " fill="#EF5922" transform="translate(567,425)"/>
<path d="M0 0 C1.8975 -0.061875 3.795 -0.12375 5.75 -0.1875 C7.35101563 -0.23970703 7.35101563 -0.23970703 8.984375 -0.29296875 C12.33542267 0.0325864 13.67281781 0.60026776 16 3 C16.31900332 6.12623255 16.41441874 8.17116253 15 11 C14.34 11 13.68 11 13 11 C13.474375 11.86625 13.94875 12.7325 14.4375 13.625 C15.93234895 16.85387374 16.58218313 19.49033826 17 23 C15.35 22.67 13.7 22.34 12 22 C11.34 19.36 10.68 16.72 10 14 C7.03 13.505 7.03 13.505 4 13 C4 16.3 4 19.6 4 23 C2.68 23 1.36 23 0 23 C0 15.41 0 7.82 0 0 Z M4 3 C4 5.31 4 7.62 4 10 C6.91652174 10.16681109 6.91652174 10.16681109 10 10 C10.66 9.34 11.32 8.68 12 8 C11.59471099 5.21762345 11.59471099 5.21762345 10 3 C8.00041636 2.95919217 5.99954746 2.95745644 4 3 Z " fill="#E85C26" transform="translate(388,425)"/>
<path d="M0 0 C1.98 0 3.96 0 6 0 C7.33871641 3.45627381 8.67005392 6.91534297 10 10.375 C10.3815625 11.35984375 10.763125 12.3446875 11.15625 13.359375 C11.5171875 14.30039062 11.878125 15.24140625 12.25 16.2109375 C12.58515625 17.08024902 12.9203125 17.94956055 13.265625 18.84521484 C14 21 14 21 14 23 C12.35 23 10.7 23 9 23 C8.34 20.69 7.68 18.38 7 16 C4.03 16 1.06 16 -2 16 C-2.33 17.98 -2.66 19.96 -3 22 C-4.65 22.33 -6.3 22.66 -8 23 C-7.26905294 17.94514073 -5.31619096 13.40096821 -3.4375 8.6875 C-3.10814453 7.85154297 -2.77878906 7.01558594 -2.43945312 6.15429688 C-1.63001123 4.10136454 -0.81676543 2.05002714 0 0 Z M2 5 C1.34 7.64 0.68 10.28 0 13 C1.98 13 3.96 13 6 13 C5.01 10.36 4.02 7.72 3 5 C2.67 5 2.34 5 2 5 Z " fill="#EA5B26" transform="translate(309,425)"/>
<path d="M0 0 C1.32 0 2.64 0 4 0 C4.33 2.64 4.66 5.28 5 8 C5.43570312 7.4225 5.87140625 6.845 6.3203125 6.25 C11.24528302 0.10977702 11.24528302 0.10977702 15.4375 -0.5 C16.7059375 -0.2525 16.7059375 -0.2525 18 0 C17.59007812 0.47050781 17.18015625 0.94101562 16.7578125 1.42578125 C16.21898437 2.04839844 15.68015625 2.67101562 15.125 3.3125 C14.59132813 3.92738281 14.05765625 4.54226563 13.5078125 5.17578125 C11.8359553 7.13498212 11.8359553 7.13498212 10 10 C10.6496875 10.85464844 11.299375 11.70929688 11.96875 12.58984375 C12.81262529 13.70563442 13.6563685 14.82152499 14.5 15.9375 C14.92925781 16.50146484 15.35851562 17.06542969 15.80078125 17.64648438 C19 21.88671875 19 21.88671875 19 23 C16.73828125 23.2421875 16.73828125 23.2421875 14 23 C11.98046875 21.3203125 11.98046875 21.3203125 10.1875 19.125 C9.58292969 18.40570313 8.97835938 17.68640625 8.35546875 16.9453125 C7 15 7 15 7 13 C6.01 13.495 6.01 13.495 5 14 C4.53348793 16.12576782 4.53348793 16.12576782 4.375 18.5625 C4.30023438 19.38878906 4.22546875 20.21507812 4.1484375 21.06640625 C4.09945313 21.70449219 4.05046875 22.34257812 4 23 C2.68 23 1.36 23 0 23 C0 15.41 0 7.82 0 0 Z " fill="#E95B28" transform="translate(348,425)"/>
<path d="M0 0 C-0.33 0.99 -0.66 1.98 -1 3 C-2.08667969 2.93039062 -2.08667969 2.93039062 -3.1953125 2.859375 C-9.51861387 2.62330508 -13.21227173 2.71624313 -18 7 C-19.59816475 10.19632951 -19.36705452 13.52299267 -19 17 C-17.67573448 20.20611651 -16.8585108 21.5707446 -13.75 23.125 C-10.73113489 24.08554799 -8.3456213 24.20109931 -5.1875 24.125 C-4.21167969 24.10695313 -3.23585938 24.08890625 -2.23046875 24.0703125 C-1.49441406 24.04710937 -0.75835937 24.02390625 0 24 C0 24.99 0 25.98 0 27 C-4.22009171 29.11004586 -9.4180681 28.50973992 -14 28 C-18.0999953 26.45609552 -21.01872287 24.43102915 -23.5 20.8125 C-25.30122164 10.68062827 -25.30122164 10.68062827 -23.08984375 6.125 C-17.31646268 -1.3005705 -8.64179445 -2.88059815 0 0 Z " fill="#FEF0DF" transform="translate(447,287)"/>
<path d="M0 0 C1.65 0 3.3 0 5 0 C7.3762034 4.5467056 9.28665469 9.13681332 11.0625 13.9375 C11.31837891 14.61490234 11.57425781 15.29230469 11.83789062 15.99023438 C13.43838849 20.28154357 14.79586354 24.58099204 16 29 C14.35 29 12.7 29 11 29 C10.34 26.03 9.68 23.06 9 20 C4.38 20 -0.24 20 -5 20 C-5.33 20.66 -5.66 21.32 -6 22 C-5.67 20.68 -5.34 19.36 -5 18 C-1.04 18 2.92 18 7 18 C5.68 14.04 4.36 10.08 3 6 C1.46478044 8.30282933 0.41642091 10.17862235 -0.625 12.6875 C-1.305625 14.3271875 -1.305625 14.3271875 -2 16 C-2.66 16 -3.32 16 -4 16 C-4.5326514 9.741346 -2.81849506 5.54891215 0 0 Z " fill="#FEF0E4" transform="translate(461,286)"/>
<path d="M0 0 C2.32421875 0.05859375 2.32421875 0.05859375 5 1 C6.22126406 3.43951265 7.04460207 5.48689482 7.8125 8.0625 C8.02841797 8.72572266 8.24433594 9.38894531 8.46679688 10.07226562 C8.99663758 11.70888468 9.5008206 13.35377006 10 15 C12.60526888 12.39473112 13.34134224 9.82060766 14.625 6.375 C15.07101562 5.18648438 15.51703125 3.99796875 15.9765625 2.7734375 C16.31429687 1.85820312 16.65203125 0.94296875 17 0 C18.65 0 20.3 0 22 0 C21.06460476 2.52163182 20.12674545 5.04230241 19.1875 7.5625 C18.79594727 8.61920898 18.79594727 8.61920898 18.39648438 9.69726562 C16.71921959 14.1906787 14.92278185 18.60589494 13 23 C11.35 23 9.7 23 8 23 C0 4.02766798 0 4.02766798 0 0 Z " fill="#E95B26" transform="translate(523,425)"/>
<path d="M0 0 C4.95 0 9.9 0 15 0 C15 0.99 15 1.98 15 3 C11.37 3 7.74 3 4 3 C4 5.31 4 7.62 4 10 C7.3 10 10.6 10 14 10 C14 10.99 14 11.98 14 13 C10.7 13 7.4 13 4 13 C4 15.31 4 17.62 4 20 C7.63 20 11.26 20 15 20 C15 20.99 15 21.98 15 23 C10.05 23 5.1 23 0 23 C0 15.41 0 7.82 0 0 Z " fill="#E55D2B" transform="translate(548,425)"/>
<path d="M0 0 C4.95 0 9.9 0 15 0 C15 0.99 15 1.98 15 3 C11.37 3 7.74 3 4 3 C4 5.31 4 7.62 4 10 C7.3 10 10.6 10 14 10 C14 10.99 14 11.98 14 13 C10.7 13 7.4 13 4 13 C4 15.31 4 17.62 4 20 C7.63 20 11.26 20 15 20 C15 20.99 15 21.98 15 23 C10.05 23 5.1 23 0 23 C0 15.41 0 7.82 0 0 Z " fill="#EA5B26" transform="translate(369,425)"/>
<path d="M0 0 C2.29109597 -0.08075665 4.58299267 -0.13907731 6.875 -0.1875 C8.78925781 -0.23970703 8.78925781 -0.23970703 10.7421875 -0.29296875 C11.81726563 -0.19628906 12.89234375 -0.09960938 14 0 C16.80163026 4.2024454 16.14489712 7.00104935 16 12 C10.72 12 5.44 12 0 12 C0 8.04 0 4.08 0 0 Z " fill="#3852A2" transform="translate(428,167)"/>
<path d="M0 0 C3.2578125 -0.29296875 3.2578125 -0.29296875 7.125 -0.1875 C9.04699219 -0.14689453 9.04699219 -0.14689453 11.0078125 -0.10546875 C11.99523437 -0.07066406 12.98265625 -0.03585938 14 0 C14 3.96 14 7.92 14 12 C8.72 12 3.44 12 -2 12 C-2.25 3.375 -2.25 3.375 0 0 Z " fill="#3753A3" transform="translate(411,167)"/>
<path d="M0 0 C1.8975 -0.061875 3.795 -0.12375 5.75 -0.1875 C7.35101563 -0.23970703 7.35101563 -0.23970703 8.984375 -0.29296875 C12.34512289 0.03352878 13.6734308 0.58479959 16 3 C16.56495922 6.88409465 16.57491801 9.06575823 14.5 12.4375 C10.86353539 14.71029038 8.24217465 14.28281164 4 14 C4 16.97 4 19.94 4 23 C2.68 23 1.36 23 0 23 C0 15.41 0 7.82 0 0 Z M4 3 C4 5.64 4 8.28 4 11 C6.91652174 11.16681109 6.91652174 11.16681109 10 11 C10.66 10.34 11.32 9.68 12 9 C11.71016731 5.69316534 11.71016731 5.69316534 10 3 C8.00041636 2.95919217 5.99954746 2.95745644 4 3 Z " fill="#ED5A23" transform="translate(285,425)"/>
<path d="M0 0 C0.98484375 0.02707031 1.9696875 0.05414063 2.984375 0.08203125 C3.73203125 0.11683594 4.4796875 0.15164063 5.25 0.1875 C4.92 1.5075 4.59 2.8275 4.25 4.1875 C0.95 4.1875 -2.35 4.1875 -5.75 4.1875 C-3.63128367 8.45467675 -3.63128367 8.45467675 0.25 10.3125 C2.81720838 11.4545302 4.23199302 12.16949302 6.25 14.1875 C6.0625 17.6875 6.0625 17.6875 5.25 21.1875 C1.72320901 23.53869399 0.22120515 23.40193452 -3.9375 23.3125 C-5.02417969 23.29445313 -6.11085938 23.27640625 -7.23046875 23.2578125 C-8.47763672 23.22300781 -8.47763672 23.22300781 -9.75 23.1875 C-9.75 21.8675 -9.75 20.5475 -9.75 19.1875 C-6.45 19.1875 -3.15 19.1875 0.25 19.1875 C0.58 18.1975 0.91 17.2075 1.25 16.1875 C0.528125 15.754375 -0.19375 15.32125 -0.9375 14.875 C-1.865625 14.318125 -2.79375 13.76125 -3.75 13.1875 C-4.6575 12.65125 -5.565 12.115 -6.5 11.5625 C-8.75 10.1875 -8.75 10.1875 -9.75 9.1875 C-10.0625 6.3125 -10.0625 6.3125 -9.75 3.1875 C-6.66337136 0.05729543 -4.28869593 -0.15316771 0 0 Z " fill="#E85B28" transform="translate(417.75,424.8125)"/>
<path d="M0 0 C0.98484375 0.02707031 1.9696875 0.05414063 2.984375 0.08203125 C3.73203125 0.11683594 4.4796875 0.15164063 5.25 0.1875 C4.92 1.5075 4.59 2.8275 4.25 4.1875 C0.95 4.1875 -2.35 4.1875 -5.75 4.1875 C-3.63128367 8.45467675 -3.63128367 8.45467675 0.25 10.3125 C2.81720838 11.4545302 4.23199302 12.16949302 6.25 14.1875 C6.0625 17.6875 6.0625 17.6875 5.25 21.1875 C1.72320901 23.53869399 0.22120515 23.40193452 -3.9375 23.3125 C-5.02417969 23.29445313 -6.11085938 23.27640625 -7.23046875 23.2578125 C-8.47763672 23.22300781 -8.47763672 23.22300781 -9.75 23.1875 C-9.75 21.8675 -9.75 20.5475 -9.75 19.1875 C-6.45 19.1875 -3.15 19.1875 0.25 19.1875 C0.58 18.1975 0.91 17.2075 1.25 16.1875 C0.528125 15.754375 -0.19375 15.32125 -0.9375 14.875 C-1.865625 14.318125 -2.79375 13.76125 -3.75 13.1875 C-4.6575 12.65125 -5.565 12.115 -6.5 11.5625 C-8.75 10.1875 -8.75 10.1875 -9.75 9.1875 C-10.0625 6.3125 -10.0625 6.3125 -9.75 3.1875 C-6.66337136 0.05729543 -4.28869593 -0.15316771 0 0 Z " fill="#EA5B26" transform="translate(596.75,424.8125)"/>
<path d="M0 0 C1.74216797 0.04060547 1.74216797 0.04060547 3.51953125 0.08203125 C4.39996094 0.11683594 5.28039062 0.15164063 6.1875 0.1875 C5.8575 1.5075 5.5275 2.8275 5.1875 4.1875 C4.51203125 4.15269531 3.8365625 4.11789062 3.140625 4.08203125 C2.24859375 4.05496094 1.3565625 4.02789062 0.4375 4 C-0.44421875 3.96519531 -1.3259375 3.93039062 -2.234375 3.89453125 C-5.31419595 4.2445109 -6.59784434 5.0528319 -8.8125 7.1875 C-10.00558162 10.84628362 -10.13917744 12.48747692 -8.5 16 C-6.99671412 18.27665626 -6.99671412 18.27665626 -4.8125 19.1875 C-3.10547265 19.25746014 -1.39581997 19.27190154 0.3125 19.25 C1.22257812 19.24097656 2.13265625 19.23195313 3.0703125 19.22265625 C3.76898438 19.21105469 4.46765625 19.19945312 5.1875 19.1875 C5.5175 20.1775 5.8475 21.1675 6.1875 22.1875 C4.33326932 24.04173068 1.49112802 23.48931432 -1 23.5625 C-8.45406217 23.47249486 -8.45406217 23.47249486 -11.5625 21.25 C-14.50542863 17.24434714 -15.18611963 14.1140658 -14.8125 9.1875 C-13.61271824 5.58815473 -12.64443058 3.81478456 -9.62109375 1.53515625 C-6.19195401 -0.11025851 -3.78351486 -0.11465197 0 0 Z " fill="#E95B25" transform="translate(338.8125,424.8125)"/>
<path d="M0 0 C8.66736307 2.43294402 16.17171506 6.65782877 24 11 C24 12.65 24 14.3 24 16 C21.03 15.505 21.03 15.505 18 15 C18 14.34 18 13.68 18 13 C17.28070312 12.88527344 16.56140625 12.77054688 15.8203125 12.65234375 C12.87038469 11.97001973 10.56144771 10.94680104 7.875 9.5625 C7.02679687 9.13066406 6.17859375 8.69882813 5.3046875 8.25390625 C3 7 3 7 0 5 C-0.1875 2.375 -0.1875 2.375 0 0 Z " fill="#CF5C40" transform="translate(506,143)"/>
<path d="M0 0 C3.3 0 6.6 0 10 0 C10 0.66 10 1.32 10 2 C8.35 2.33 6.7 2.66 5 3 C5.01160156 3.78761719 5.02320313 4.57523437 5.03515625 5.38671875 C5.1008018 13.31107387 4.72317286 21.10966757 4 29 C2.68 29 1.36 29 0 29 C0 19.43 0 9.86 0 0 Z " fill="#FEF1E1" transform="translate(482,286)"/>
<path d="M0 0 C2.18614424 2.18614424 2.68256535 3.53879949 3.625 6.4375 C4.01558594 7.61119141 4.01558594 7.61119141 4.4140625 8.80859375 C5 11 5 11 5 14 C-0.94 14.495 -0.94 14.495 -7 15 C-6.34 15.66 -5.68 16.32 -5 17 C-5.99 19.64 -6.98 22.28 -8 25 C-9.65 25 -11.3 25 -13 25 C-11.02 19.39 -9.04 13.78 -7 8 C-6.67 9.32 -6.34 10.64 -6 12 C-3.32098068 9.68118495 -2.33795597 7.68185532 -1.3125 4.3125 C-1.06113281 3.50425781 -0.80976563 2.69601562 -0.55078125 1.86328125 C-0.36902344 1.24839844 -0.18726563 0.63351562 0 0 Z " fill="#FEE1CB" transform="translate(463,290)"/>
<path d="M0 0 C3.9874395 1.17810712 6.71745488 2.5132234 10 5 C11.670625 5.7115625 11.670625 5.7115625 13.375 6.4375 C16.95338598 7.97990775 19.92908448 9.60318788 23 12 C23 12.99 23 13.98 23 15 C16.71634527 14.55818053 12.42883742 13.06204957 7 9.9375 C6.32066406 9.56044922 5.64132812 9.18339844 4.94140625 8.79492188 C3.28773953 7.8749242 1.64289303 6.93910161 0 6 C0 4.02 0 2.04 0 0 Z " fill="#C75C48" transform="translate(506,134)"/>
<path d="M0 0 C7.6511258 -0.02095561 15.30214799 -0.0409927 22.95327759 -0.05175018 C26.5160647 -0.05703603 30.07882813 -0.06410247 33.64160156 -0.07543945 C37.72721591 -0.08835914 41.81280506 -0.09323229 45.8984375 -0.09765625 C47.81878311 -0.10539818 47.81878311 -0.10539818 49.77792358 -0.11329651 C50.95899689 -0.11337204 52.14007019 -0.11344757 53.35693359 -0.11352539 C54.92246475 -0.11685631 54.92246475 -0.11685631 56.5196228 -0.12025452 C59 0 59 0 61 1 C61.72693904 2.97888961 62.39816251 4.97954558 63 7 C62.27474121 6.18958252 61.54948242 5.37916504 60.80224609 4.54418945 C55.96302024 0.54371924 50.15255929 1.27324399 44.1640625 1.29296875 C42.92957367 1.27784744 41.69508484 1.26272614 40.42318726 1.24714661 C36.49027267 1.20424769 32.55812532 1.19542872 28.625 1.1875 C25.95435759 1.16711712 23.28386634 1.13899325 20.61328125 1.11132812 C14.07510234 1.0442803 7.53906494 1.02333865 1 1 C1 16.18 1 31.36 1 47 C0.67 47 0.34 47 0 47 C0 31.49 0 15.98 0 0 Z " fill="#6C4C72" transform="translate(616,235)"/>
<path d="M0 0 C6.25882353 -0.36108597 6.25882353 -0.36108597 9.4375 1.1875 C11 3 11 3 11.5 5.5 C11 8 11 8 9.4375 9.8125 C6.19571384 11.39183172 3.55711122 11.20521796 0 11 C0 7.37 0 3.74 0 0 Z " fill="#E4602E" transform="translate(486,289)"/>
<path d="M0 0 C3.79301351 1.06982432 6.99725439 2.51550128 10.375 4.5 C14.53865784 6.89640069 18.30117715 8.06023543 23 9 C22.2236068 5.9254644 22.2236068 5.9254644 20 4 C21.32 4 22.64 4 24 4 C24 7.3 24 10.6 24 14 C18.94566211 12.48210922 14.42761076 10.33199122 9.75 7.9375 C9.03070312 7.57333984 8.31140625 7.20917969 7.5703125 6.83398438 C5.71188352 5.89258917 3.85577685 4.94661263 2 4 C1.34 3.67 0.68 3.34 0 3 C0 2.01 0 1.02 0 0 Z " fill="#5D4C7C" transform="translate(506,140)"/>
<path d="M0 0 C2.97 0 5.94 0 9 0 C9 4.29 9 8.58 9 13 C6.03 13 3.06 13 0 13 C0 8.71 0 4.42 0 0 Z M2 1 C2.99 2.32 3.98 3.64 5 5 C5.66 3.68 6.32 2.36 7 1 C5.35 1 3.7 1 2 1 Z M1 4 C1 5.65 1 7.3 1 9 C1.66 8.67 2.32 8.34 3 8 C2.67 6.68 2.34 5.36 2 4 C1.67 4 1.34 4 1 4 Z M7 4 C6.67 5.32 6.34 6.64 6 8 C6.99 8.495 6.99 8.495 8 9 C8 7.35 8 5.7 8 4 C7.67 4 7.34 4 7 4 Z M4 8 C3.34 9.32 2.68 10.64 2 12 C3.65 12 5.3 12 7 12 C6.01 10.68 5.02 9.36 4 8 Z " fill="#3A529C" transform="translate(602,457)"/>
<path d="M0 0 C2.14576637 -0.02685938 4.29162645 -0.04633088 6.4375 -0.0625 C7.63246094 -0.07410156 8.82742188 -0.08570313 10.05859375 -0.09765625 C13 0 13 0 14 1 C14.07179964 2.51928038 14.08392007 4.04167482 14.0625 5.5625 C14.05347656 6.38878906 14.04445313 7.21507812 14.03515625 8.06640625 C14.02355469 8.70449219 14.01195312 9.34257812 14 10 C13.34 10 12.68 10 12 10 C11.67 7.69 11.34 5.38 11 3 C10.34 3 9.68 3 9 3 C8.67 5.31 8.34 7.62 8 10 C7.34 10 6.68 10 6 10 C5.67 7.69 5.34 5.38 5 3 C4.34 3 3.68 3 3 3 C2.67 5.31 2.34 7.62 2 10 C1.34 10 0.68 10 0 10 C0 6.7 0 3.4 0 0 Z " fill="#3C5395" transform="translate(336,460)"/>
<path d="M0 0 C1.97909398 -0.02686553 3.95828971 -0.04633375 5.9375 -0.0625 C7.03964844 -0.07410156 8.14179687 -0.08570313 9.27734375 -0.09765625 C12 0 12 0 13 1 C13.07179964 2.51928038 13.08392007 4.04167482 13.0625 5.5625 C13.05347656 6.38878906 13.04445313 7.21507812 13.03515625 8.06640625 C13.02355469 8.70449219 13.01195312 9.34257812 13 10 C12.34 10 11.68 10 11 10 C11 7.36 11 4.72 11 2 C10.01 2.495 10.01 2.495 9 3 C8.59270772 5.32156597 8.25561323 7.6568787 8 10 C7.34 10 6.68 10 6 10 C5.67 7.69 5.34 5.38 5 3 C4.34 3 3.68 3 3 3 C2.67 5.31 2.34 7.62 2 10 C1.34 10 0.68 10 0 10 C0 6.7 0 3.4 0 0 Z " fill="#3B529A" transform="translate(558,460)"/>
<path d="M0 0 C1.97909398 -0.02686553 3.95828971 -0.04633375 5.9375 -0.0625 C7.03964844 -0.07410156 8.14179688 -0.08570313 9.27734375 -0.09765625 C12 0 12 0 13 1 C13.07179964 2.51928038 13.08392007 4.04167482 13.0625 5.5625 C13.05347656 6.38878906 13.04445313 7.21507812 13.03515625 8.06640625 C13.02355469 8.70449219 13.01195312 9.34257812 13 10 C12.34 10 11.68 10 11 10 C11 7.36 11 4.72 11 2 C10.01 2.495 10.01 2.495 9 3 C8.59270772 5.32156597 8.25561323 7.6568787 8 10 C7.34 10 6.68 10 6 10 C5.67 7.69 5.34 5.38 5 3 C4.34 3 3.68 3 3 3 C2.67 5.31 2.34 7.62 2 10 C1.34 10 0.68 10 0 10 C0 6.7 0 3.4 0 0 Z " fill="#3D5297" transform="translate(476,460)"/>
<path d="M0 0 C1.97909398 -0.02686553 3.95828971 -0.04633375 5.9375 -0.0625 C7.03964844 -0.07410156 8.14179688 -0.08570313 9.27734375 -0.09765625 C12 0 12 0 13 1 C13.07179964 2.51928038 13.08392007 4.04167482 13.0625 5.5625 C13.05347656 6.38878906 13.04445313 7.21507812 13.03515625 8.06640625 C13.02355469 8.70449219 13.01195312 9.34257812 13 10 C12.34 10 11.68 10 11 10 C11 7.36 11 4.72 11 2 C10.01 2.495 10.01 2.495 9 3 C8.59270772 5.32156597 8.25561323 7.6568787 8 10 C7.34 10 6.68 10 6 10 C5.67 7.69 5.34 5.38 5 3 C4.34 3 3.68 3 3 3 C2.67 5.31 2.34 7.62 2 10 C1.34 10 0.68 10 0 10 C0 6.7 0 3.4 0 0 Z " fill="#3C5297" transform="translate(460,460)"/>
<path d="M0 0 C0.66 0 1.32 0 2 0 C2 4.62 2 9.24 2 14 C-4.15234375 14.09765625 -4.15234375 14.09765625 -6 14 C-7 13 -7 13 -7.125 9.5625 C-7 6 -7 6 -6 4 C-4.02 4 -2.04 4 0 4 C0 2.68 0 1.36 0 0 Z M-4 6 C-4.33 7.65 -4.66 9.3 -5 11 C-3.68 11.33 -2.36 11.66 -1 12 C0.01111093 8.95086772 0.01111093 8.95086772 -1 6 C-1.99 6 -2.98 6 -4 6 Z " fill="#3C5299" transform="translate(508,456)"/>
<path d="M0 0 C0.99 0 1.98 0 3 0 C3.67057887 1.7902061 4.3363469 3.58221489 5 5.375 C5.556875 6.87160156 5.556875 6.87160156 6.125 8.3984375 C7 11 7 11 7 13 C6.01 13 5.02 13 4 13 C3.67 12.01 3.34 11.02 3 10 C0.98491642 9.26676204 0.98491642 9.26676204 -1 9 C-1.33 10.32 -1.66 11.64 -2 13 C-2.66 13 -3.32 13 -4 13 C-3.71517632 11.58194169 -3.42181856 10.16559621 -3.125 8.75 C-2.96257812 7.96109375 -2.80015625 7.1721875 -2.6328125 6.359375 C-2.00849925 4.03168856 -1.15161458 2.10968048 0 0 Z M1 4 C0.67 4.99 0.34 5.98 0 7 C0.66 7 1.32 7 2 7 C1.67 6.01 1.34 5.02 1 4 Z " fill="#39529D" transform="translate(389,457)"/>
<path d="M0 0 C0.33 0.66 0.66 1.32 1 2 C1.99 2.33 2.98 2.66 4 3 C3.34 3 2.68 3 2 3 C2.474375 3.86625 2.94875 4.7325 3.4375 5.625 C4.93234895 8.85387374 5.58218313 11.49033826 6 15 C4.35 14.67 2.7 14.34 1 14 C0.34 11.36 -0.32 8.72 -1 6 C-2.65 5.67 -4.3 5.34 -6 5 C-5.195625 4.360625 -4.39125 3.72125 -3.5625 3.0625 C-1.7249496 1.59396498 -1.7249496 1.59396498 0 0 Z " fill="#E75C2B" transform="translate(578,433)"/>
<path d="M0 0 C2.64 0 5.28 0 8 0 C9.38125018 2.76250036 9.19079306 4.94731099 9 8 C7 10 7 10 4.375 10.125 C3.59125 10.08375 2.8075 10.0425 2 10 C2 11.32 2 12.64 2 14 C1.34 14 0.68 14 0 14 C0 9.38 0 4.76 0 0 Z M3 2 C2.67 3.65 2.34 5.3 2 7 C3.32 7.33 4.64 7.66 6 8 C7.01111093 4.95086772 7.01111093 4.95086772 6 2 C5.01 2 4.02 2 3 2 Z " fill="#39529C" transform="translate(407,460)"/>
<path d="M0 0 C0.928125 0.495 1.85625 0.99 2.8125 1.5 C7.73968438 3.659445 12.72281389 3.25765646 18 3 C18 3.99 18 4.98 18 6 C13.82141755 8.08929122 8.54876054 7.44618415 4 7 C1.24563226 5.95049881 -0.59378409 4.7499752 -3 3 C-2.01 2.67 -1.02 2.34 0 2 C0 1.34 0 0.68 0 0 Z " fill="#FEEBDB" transform="translate(429,308)"/>
<path d="M0 0 C0.66 0 1.32 0 2 0 C2 1.65 2 3.3 2 5 C3.98 5 5.96 5 8 5 C8 3.35 8 1.7 8 0 C8.66 0 9.32 0 10 0 C10 4.29 10 8.58 10 13 C9.34 13 8.68 13 8 13 C8 11.02 8 9.04 8 7 C6.02 7 4.04 7 2 7 C2 8.98 2 10.96 2 13 C1.34 13 0.68 13 0 13 C0 8.71 0 4.42 0 0 Z " fill="#3E5290" transform="translate(536,457)"/>
<path d="M0 0 C2.46301423 2.46301423 2.76766521 4.27360036 3.625 7.625 C3.88539063 8.62789063 4.14578125 9.63078125 4.4140625 10.6640625 C4.60742188 11.43492187 4.80078125 12.20578125 5 13 C2.03 13 -0.94 13 -4 13 C-3.52343588 11.20763933 -3.04366502 9.41613103 -2.5625 7.625 C-2.29566406 6.62726563 -2.02882813 5.62953125 -1.75390625 4.6015625 C-1 2 -1 2 0 0 Z " fill="#D7683D" transform="translate(463,290)"/>
<path d="M0 0 C2.5 0.25 2.5 0.25 4.5 2.25 C4.5 3.57 4.5 4.89 4.5 6.25 C2.52 6.58 0.54 6.91 -1.5 7.25 C0.48 7.91 2.46 8.57 4.5 9.25 C4.5 9.58 4.5 9.91 4.5 10.25 C1.125 10.375 1.125 10.375 -2.5 10.25 C-4.5 8.25 -4.5 8.25 -4.75 5.25 C-4.43608753 1.48305032 -3.83691092 0.38369109 0 0 Z M-1.5 2.25 C-1.5 2.91 -1.5 3.57 -1.5 4.25 C-0.51 4.25 0.48 4.25 1.5 4.25 C1.5 3.59 1.5 2.93 1.5 2.25 C0.51 2.25 -0.48 2.25 -1.5 2.25 Z " fill="#3B5298" transform="translate(495.5,459.75)"/>
<path d="M0 0 C0.66 0 1.32 0 2 0 C2.33 1.98 2.66 3.96 3 6 C3.33 5.34 3.66 4.68 4 4 C5.32 4.33 6.64 4.66 8 5 C7.443125 5.8353125 7.443125 5.8353125 6.875 6.6875 C5.70484137 9.05716353 5.70484137 9.05716353 6.875 11.75 C7.24625 12.4925 7.6175 13.235 8 14 C6.0625 13.625 6.0625 13.625 4 13 C3.67 12.34 3.34 11.68 3 11 C2.67 11.99 2.34 12.98 2 14 C1.34 14 0.68 14 0 14 C0 9.38 0 4.76 0 0 Z " fill="#3753A1" transform="translate(417,456)"/>
<path d="M0 0 C1.134375 0.020625 2.26875 0.04125 3.4375 0.0625 C3.4375 0.7225 3.4375 1.3825 3.4375 2.0625 C1.7875 2.3925 0.1375 2.7225 -1.5625 3.0625 C-0.7375 3.619375 0.0875 4.17625 0.9375 4.75 C3.4375 7.0625 3.4375 7.0625 3.8125 9.75 C3.4375 12.0625 3.4375 12.0625 2.4375 13.0625 C0.10452567 13.10342937 -2.22955225 13.10491723 -4.5625 13.0625 C-4.5625 12.4025 -4.5625 11.7425 -4.5625 11.0625 C-2.9125 10.7325 -1.2625 10.4025 0.4375 10.0625 C-1.19662443 8.35409719 -2.43156094 7.12796953 -4.5625 6.0625 C-4.605221 4.39638095 -4.60313832 2.72867115 -4.5625 1.0625 C-3.5625 0.0625 -3.5625 0.0625 0 0 Z " fill="#3A5299" transform="translate(312.5625,456.9375)"/>
<path d="M0 0 C-0.33 0.99 -0.66 1.98 -1 3 C-1.72445313 2.96519531 -2.44890625 2.93039062 -3.1953125 2.89453125 C-8.93998168 2.73368051 -13.01322966 2.76533816 -18 6 C-18 5.34 -18 4.68 -18 4 C-18.66 3.67 -19.32 3.34 -20 3 C-13.61071513 -1.44471991 -7.50545522 -2.50181841 0 0 Z " fill="#FFEEDD" transform="translate(447,287)"/>
<path d="M0 0 C0.66 0 1.32 0 2 0 C2.06058594 0.67546875 2.12117188 1.3509375 2.18359375 2.046875 C2.26738281 2.93890625 2.35117187 3.8309375 2.4375 4.75 C2.55931641 6.07257813 2.55931641 6.07257813 2.68359375 7.421875 C2.93714901 9.9690211 2.93714901 9.9690211 3.59765625 12.265625 C3.73042969 12.83796875 3.86320312 13.4103125 4 14 C3.67 14.33 3.34 14.66 3 15 C2.76636119 16.84891946 2.58696365 18.70488031 2.4375 20.5625 C2.35371094 21.57441406 2.26992188 22.58632813 2.18359375 23.62890625 C2.12300781 24.41136719 2.06242187 25.19382812 2 26 C1.34 26 0.68 26 0 26 C0 17.42 0 8.84 0 0 Z " fill="#FDFDFA" transform="translate(483,288)"/>
<path d="M0 0 C1.99954746 -0.04254356 4.00041636 -0.04080783 6 0 C7 1 7 1 7.09765625 3.06640625 C7.08605469 3.89011719 7.07445312 4.71382813 7.0625 5.5625 C7.05347656 6.38878906 7.04445313 7.21507812 7.03515625 8.06640625 C7.02355469 8.70449219 7.01195312 9.34257812 7 10 C4.69 10 2.38 10 0 10 C-0.33 8.35 -0.66 6.7 -1 5 C0.65 4.34 2.3 3.68 4 3 C2.68 2.67 1.36 2.34 0 2 C0 1.34 0 0.68 0 0 Z M2 6 C1.67 6.66 1.34 7.32 1 8 C2.32 7.67 3.64 7.34 5 7 C4.01 6.67 3.02 6.34 2 6 Z " fill="#3B5299" transform="translate(512,460)"/>
<path d="M0 0 C1.99954746 -0.04254356 4.00041636 -0.04080783 6 0 C7 1 7 1 7.09765625 3.06640625 C7.08605469 3.89011719 7.07445312 4.71382813 7.0625 5.5625 C7.05347656 6.38878906 7.04445313 7.21507812 7.03515625 8.06640625 C7.02355469 8.70449219 7.01195312 9.34257812 7 10 C4.69 10 2.38 10 0 10 C-0.33 8.35 -0.66 6.7 -1 5 C0.65 4.34 2.3 3.68 4 3 C2.68 2.67 1.36 2.34 0 2 C0 1.34 0 0.68 0 0 Z M2 6 C1.67 6.66 1.34 7.32 1 8 C2.32 7.67 3.64 7.34 5 7 C4.01 6.67 3.02 6.34 2 6 Z " fill="#3A529B" transform="translate(583,460)"/>
<path d="M0 0 C1.99954746 -0.04254356 4.00041636 -0.04080783 6 0 C7 1 7 1 7.09765625 3.06640625 C7.08605469 3.89011719 7.07445312 4.71382813 7.0625 5.5625 C7.05347656 6.38878906 7.04445313 7.21507812 7.03515625 8.06640625 C7.02355469 8.70449219 7.01195312 9.34257812 7 10 C4.69 10 2.38 10 0 10 C-0.33 8.35 -0.66 6.7 -1 5 C0.65 4.34 2.3 3.68 4 3 C2.68 2.67 1.36 2.34 0 2 C0 1.34 0 0.68 0 0 Z M2 6 C1.67 6.66 1.34 7.32 1 8 C2.32 7.67 3.64 7.34 5 7 C4.01 6.67 3.02 6.34 2 6 Z " fill="#39539B" transform="translate(362,460)"/>
<path d="M0 0 C1.99954746 -0.04254356 4.00041636 -0.04080783 6 0 C7 1 7 1 7.09765625 3.06640625 C7.08605469 3.89011719 7.07445312 4.71382813 7.0625 5.5625 C7.05347656 6.38878906 7.04445313 7.21507812 7.03515625 8.06640625 C7.02355469 8.70449219 7.01195312 9.34257812 7 10 C4.69 10 2.38 10 0 10 C-0.33 8.35 -0.66 6.7 -1 5 C0.65 4.34 2.3 3.68 4 3 C2.68 2.67 1.36 2.34 0 2 C0 1.34 0 0.68 0 0 Z M2 6 C1.67 6.66 1.34 7.32 1 8 C2.32 7.67 3.64 7.34 5 7 C4.01 6.67 3.02 6.34 2 6 Z " fill="#3A529B" transform="translate(574,460)"/>
<path d="M0 0 C1.99954746 -0.04254356 4.00041636 -0.04080783 6 0 C7 1 7 1 7.09765625 3.06640625 C7.08605469 3.89011719 7.07445312 4.71382813 7.0625 5.5625 C7.05347656 6.38878906 7.04445313 7.21507812 7.03515625 8.06640625 C7.02355469 8.70449219 7.01195312 9.34257812 7 10 C4.69 10 2.38 10 0 10 C-0.33 8.35 -0.66 6.7 -1 5 C0.65 4.34 2.3 3.68 4 3 C2.68 2.67 1.36 2.34 0 2 C0 1.34 0 0.68 0 0 Z M2 6 C1.67 6.66 1.34 7.32 1 8 C2.32 7.67 3.64 7.34 5 7 C4.01 6.67 3.02 6.34 2 6 Z " fill="#3A5299" transform="translate(427,460)"/>
<path d="M0 0 C0.886875 -0.01417969 1.77375 -0.02835937 2.6875 -0.04296875 C5 0.1875 5 0.1875 7 2.1875 C6.28714844 2.17847656 5.57429687 2.16945313 4.83984375 2.16015625 C-0.50337846 2.32555882 -4.16696771 2.62820379 -8.125 6.4375 C-10.51908114 9.20869178 -11.88579806 11.41883594 -12 15.1875 C-12.33 15.1875 -12.66 15.1875 -13 15.1875 C-12.88192841 10.26069446 -12.74997195 7.11054239 -9.5625 3.1875 C-6.07331474 0.46423345 -4.3607119 0.03169122 0 0 Z " fill="#E0693B" transform="translate(523,288.8125)"/>
<path d="M0 0 C1.99954746 -0.04254356 4.00041636 -0.04080783 6 0 C7 1 7 1 7.09765625 3.06640625 C7.08605469 3.89011719 7.07445312 4.71382813 7.0625 5.5625 C7.05347656 6.38878906 7.04445313 7.21507812 7.03515625 8.06640625 C7.01775391 9.02353516 7.01775391 9.02353516 7 10 C4.69 10 2.38 10 0 10 C0 8.35 0 6.7 0 5 C1.65 4.67 3.3 4.34 5 4 C5 3.34 5 2.68 5 2 C3.35 2 1.7 2 0 2 C0 1.34 0 0.68 0 0 Z M2 6 C2 6.66 2 7.32 2 8 C2.99 7.67 3.98 7.34 5 7 C4.01 6.67 3.02 6.34 2 6 Z " fill="#3A5397" transform="translate(327,460)"/>
<path d="M0 0 C1.99954746 -0.04254356 4.00041636 -0.04080783 6 0 C7 1 7 1 7.09765625 3.06640625 C7.08605469 3.89011719 7.07445312 4.71382813 7.0625 5.5625 C7.05347656 6.38878906 7.04445313 7.21507812 7.03515625 8.06640625 C7.01775391 9.02353516 7.01775391 9.02353516 7 10 C4.69 10 2.38 10 0 10 C0 8.35 0 6.7 0 5 C1.65 4.67 3.3 4.34 5 4 C5 3.34 5 2.68 5 2 C3.35 2 1.7 2 0 2 C0 1.34 0 0.68 0 0 Z M2 6 C2 6.66 2 7.32 2 8 C2.99 7.67 3.98 7.34 5 7 C4.01 6.67 3.02 6.34 2 6 Z " fill="#3F5290" transform="translate(397,460)"/>
<path d="M0 0 C1.99954746 -0.04254356 4.00041636 -0.04080783 6 0 C7 1 7 1 7.09765625 3.06640625 C7.08605469 3.89011719 7.07445312 4.71382813 7.0625 5.5625 C7.05347656 6.38878906 7.04445313 7.21507812 7.03515625 8.06640625 C7.01775391 9.02353516 7.01775391 9.02353516 7 10 C4.69 10 2.38 10 0 10 C0 8.35 0 6.7 0 5 C1.65 4.67 3.3 4.34 5 4 C5 3.34 5 2.68 5 2 C3.35 2 1.7 2 0 2 C0 1.34 0 0.68 0 0 Z M2 6 C2 6.66 2 7.32 2 8 C2.99 7.67 3.98 7.34 5 7 C4.01 6.67 3.02 6.34 2 6 Z " fill="#3C5296" transform="translate(548,460)"/>
<path d="M0 0 C1.99954746 -0.04254356 4.00041636 -0.04080783 6 0 C7 1 7 1 7.09765625 3.06640625 C7.08605469 3.89011719 7.07445312 4.71382813 7.0625 5.5625 C7.05347656 6.38878906 7.04445313 7.21507812 7.03515625 8.06640625 C7.01775391 9.02353516 7.01775391 9.02353516 7 10 C4.69 10 2.38 10 0 10 C0 8.35 0 6.7 0 5 C1.65 4.67 3.3 4.34 5 4 C5 3.34 5 2.68 5 2 C3.35 2 1.7 2 0 2 C0 1.34 0 0.68 0 0 Z M2 6 C2 6.66 2 7.32 2 8 C2.99 7.67 3.98 7.34 5 7 C4.01 6.67 3.02 6.34 2 6 Z " fill="#3B5396" transform="translate(352,460)"/>
<path d="M0 0 C1.99954746 -0.04254356 4.00041636 -0.04080783 6 0 C7 1 7 1 7.09765625 3.06640625 C7.08605469 3.89011719 7.07445312 4.71382813 7.0625 5.5625 C7.05347656 6.38878906 7.04445313 7.21507812 7.03515625 8.06640625 C7.01775391 9.02353516 7.01775391 9.02353516 7 10 C4.69 10 2.38 10 0 10 C0 8.35 0 6.7 0 5 C1.65 4.67 3.3 4.34 5 4 C5 3.34 5 2.68 5 2 C3.35 2 1.7 2 0 2 C0 1.34 0 0.68 0 0 Z M2 6 C2 6.66 2 7.32 2 8 C2.99 7.67 3.98 7.34 5 7 C4.01 6.67 3.02 6.34 2 6 Z " fill="#3C5298" transform="translate(318,460)"/>
<path d="M0 0 C0.66 0 1.32 0 2 0 C1.96651242 9.56070442 1.96651242 9.56070442 -0.26171875 12.87890625 C-1.8125 14.25 -1.8125 14.25 -5 16 C-7.375 15.8125 -7.375 15.8125 -9 15 C-4 10 -4 10 -2.25 8.625 C-0.249834 6.0247842 -0.30087122 3.1892349 0 0 Z " fill="#FEEDDB" transform="translate(563,298)"/>
<path d="M0 0 C2.33294775 -0.04241723 4.66702567 -0.04092937 7 0 C8 1 8 1 8.09765625 3.06640625 C8.08605469 3.89011719 8.07445312 4.71382813 8.0625 5.5625 C8.05347656 6.38878906 8.04445313 7.21507812 8.03515625 8.06640625 C8.02355469 8.70449219 8.01195312 9.34257812 8 10 C7.34 10 6.68 10 6 10 C5.67 7.69 5.34 5.38 5 3 C4.34 3 3.68 3 3 3 C2.67 5.31 2.34 7.62 2 10 C1.34 10 0.68 10 0 10 C0 6.7 0 3.4 0 0 Z " fill="#3A529E" transform="translate(371,460)"/>
<path d="M0 0 C5.79626107 0.39974214 9.41472463 1.10251593 14 5 C14 5.99 14 6.98 14 8 C11.03 7.505 11.03 7.505 8 7 C7.67 6.01 7.34 5.02 7 4 C5.01276732 3.29618843 3.01222047 2.6288189 1 2 C0.67 1.34 0.34 0.68 0 0 Z " fill="#E45A31" transform="translate(515,141)"/>
<path d="M0 0 C1.09506492 3.28519475 1.09960608 5.73663415 1.0625 9.1875 C1.05347656 10.27417969 1.04445313 11.36085938 1.03515625 12.48046875 C1.02355469 13.31191406 1.01195312 14.14335937 1 15 C0.01 15 -0.98 15 -2 15 C-3.29729053 12.40541894 -3.2042812 10.39552402 -3.25 7.5 C-3.27578125 6.5203125 -3.3015625 5.540625 -3.328125 4.53125 C-3.21984375 3.6959375 -3.1115625 2.860625 -3 2 C-2.01 1.34 -1.02 0.68 0 0 Z " fill="#FEF2E6" transform="translate(540,293)"/>
<path d="M0 0 C0 0.66 0 1.32 0 2 C1.32 2.33 2.64 2.66 4 3 C3.06027344 3.12955078 3.06027344 3.12955078 2.1015625 3.26171875 C-0.36782875 3.68626709 -2.64356842 4.14272416 -5 5 C-6.67613187 7.47014472 -6.67613187 7.47014472 -7 10 C-8.32 9.01 -9.64 8.02 -11 7 C-4.36842105 0 -4.36842105 0 0 0 Z " fill="#FDE2CA" transform="translate(549,286)"/>
<path d="M0 0 C1.32 0 2.64 0 4 0 C4 3.3 4 6.6 4 10 C-1.75 8.25 -1.75 8.25 -4 6 C-3.67 5.34 -3.34 4.68 -3 4 C-0.03 4.495 -0.03 4.495 3 5 C2.2236068 1.9254644 2.2236068 1.9254644 0 0 Z " fill="#80536B" transform="translate(526,144)"/>
<path d="M0 0 C1.98 0 3.96 0 6 0 C6 2.97 6 5.94 6 9 C-4.15317287 9.63019694 -4.15317287 9.63019694 -7.6875 7 C-8.120625 6.34 -8.55375 5.68 -9 5 C-6.69 5.33 -4.38 5.66 -2 6 C-2 6.66 -2 7.32 -2 8 C0.31 8 2.62 8 5 8 C5 5.69 5 3.38 5 1 C3.35 1 1.7 1 0 1 C0 0.67 0 0.34 0 0 Z " fill="#DB6F46" transform="translate(522,303)"/>
<path d="M0 0 C0.66 0 1.32 0 2 0 C2.02686553 1.97909398 2.04633375 3.95828971 2.0625 5.9375 C2.07410156 7.03964844 2.08570313 8.14179688 2.09765625 9.27734375 C2 12 2 12 1 13 C-0.66617115 13.04063832 -2.33388095 13.042721 -4 13 C-4 12.34 -4 11.68 -4 11 C-3.01 10.67 -2.02 10.34 -1 10 C-0.67 6.7 -0.34 3.4 0 0 Z " fill="#38539E" transform="translate(451,457)"/>
<path d="M0 0 C2.50298434 2.93828597 3.46930939 5.17902761 4 9 C2.35 9 0.7 9 -1 9 C-1.66 6.36 -2.32 3.72 -3 1 C-2.01 0.67 -1.02 0.34 0 0 Z " fill="#FEE6D0" transform="translate(473,306)"/>
<path d="M0 0 C0.66 0 1.32 0 2 0 C3.25664978 2.90600261 4 4.79604584 4 8 C4.66 8 5.32 8 6 8 C6 10.64 6 13.28 6 16 C4.02 16 2.04 16 0 16 C0.33 15.34 0.66 14.68 1 14 C2.32 14.33 3.64 14.66 5 15 C4.38003999 13.2273959 3.75384007 11.45697333 3.125 9.6875 C2.77695312 8.70136719 2.42890625 7.71523438 2.0703125 6.69921875 C1.04694076 3.84405623 1.04694076 3.84405623 -1 1 C-0.67 0.67 -0.34 0.34 0 0 Z " fill="#DD6A3C" transform="translate(497,300)"/>
<path d="M0 0 C2.5 1.125 2.5 1.125 5 3 C5.3125 6.1875 5.3125 6.1875 5 9 C4.67 7.68 4.34 6.36 4 5 C3.34 5 2.68 5 2 5 C1.67 5.66 1.34 6.32 1 7 C0.34 6.01 -0.32 5.02 -1 4 C-4.06556598 3.26656572 -4.06556598 3.26656572 -7 3 C-7 2.67 -7 2.34 -7 2 C-4.69 2 -2.38 2 0 2 C0 1.34 0 0.68 0 0 Z " fill="#DE5F30" transform="translate(399,425)"/>
<path d="M0 0 C4.47238653 1.41807378 8.71146306 3.11304374 13 5 C13 5.66 13 6.32 13 7 C15.97 7.495 15.97 7.495 19 8 C15.86650268 9.04449911 15.01031744 8.93423645 12 8 C12 7.34 12 6.68 12 6 C11.319375 6.0825 10.63875 6.165 9.9375 6.25 C5.83124335 5.90053135 3.47678105 4.18150968 0 2 C0 1.34 0 0.68 0 0 Z " fill="#604F7A" transform="translate(511,151)"/>
<path d="M0 0 C1.65 0 3.3 0 5 0 C5 0.66 5 1.32 5 2 C4.34 2 3.68 2 3 2 C2.67 4.64 2.34 7.28 2 10 C1.34 10 0.68 10 0 10 C0 6.7 0 3.4 0 0 Z " fill="#3A529A" transform="translate(521,460)"/>
<path d="M0 0 C1.65 0 3.3 0 5 0 C5 0.66 5 1.32 5 2 C4.34 2 3.68 2 3 2 C2.67 4.64 2.34 7.28 2 10 C1.34 10 0.68 10 0 10 C0 6.7 0 3.4 0 0 Z " fill="#3E5291" transform="translate(592,460)"/>
<path d="M0 0 C0 0.99 0 1.98 0 3 C-2.76452033 4.38226016 -5.0461363 4.09525387 -8.125 4.0625 C-9.22070312 4.05347656 -10.31640625 4.04445313 -11.4453125 4.03515625 C-12.70988281 4.01775391 -12.70988281 4.01775391 -14 4 C-14 3.67 -14 3.34 -14 3 C-12.9275 2.87625 -11.855 2.7525 -10.75 2.625 C-6.81376137 1.96896023 -3.92109232 0 0 0 Z " fill="#FED5BE" transform="translate(447,311)"/>
<path d="M0 0 C1.60407328 -0.02708567 3.2082785 -0.04643483 4.8125 -0.0625 C5.70582031 -0.07410156 6.59914063 -0.08570313 7.51953125 -0.09765625 C10 0 10 0 13 1 C12.67 1.99 12.34 2.98 12 4 C7.38021605 3.28136694 3.94109182 2.62739455 0 0 Z " fill="#FDE1C7" transform="translate(434,286)"/>
<path d="M0 0 C1.65 0 3.3 0 5 0 C5 1.65 5 3.3 5 5 C3.02 5 1.04 5 -1 5 C-0.67 3.35 -0.34 1.7 0 0 Z M1 2 C1 2.66 1 3.32 1 4 C1.99 3.67 2.98 3.34 4 3 C3.01 2.67 2.02 2.34 1 2 Z " fill="#38539F" transform="translate(398,464)"/>
<path d="M0 0 C2 3.75 2 3.75 2 6 C0.35 5.67 -1.3 5.34 -3 5 C-3.33 3.68 -3.66 2.36 -4 1 C-2.68 0.67 -1.36 0.34 0 0 Z " fill="#DD5F31" transform="translate(403,442)"/>
<path d="M0 0 C2.12508244 3.18762365 2.5020163 5.26512223 3 9 C1.35 8.67 -0.3 8.34 -2 8 C-1.67 6.68 -1.34 5.36 -1 4 C-1 4.99 -1 5.98 -1 7 C-0.34 7 0.32 7 1 7 C0.67 4.69 0.34 2.38 0 0 Z " fill="#FCDFC2" transform="translate(499,306)"/>
<path d="M0 0 C0.66 0 1.32 0 2 0 C2 3.3 2 6.6 2 10 C1.34 10 0.68 10 0 10 C0 6.7 0 3.4 0 0 Z " fill="#3E538E" transform="translate(598,460)"/>
<path d="M0 0 C0.66 0 1.32 0 2 0 C2 3.3 2 6.6 2 10 C1.34 10 0.68 10 0 10 C0 6.7 0 3.4 0 0 Z " fill="#3951A3" transform="translate(527,460)"/>
<path d="M0 0 C0.66 0 1.32 0 2 0 C2 3.3 2 6.6 2 10 C1.34 10 0.68 10 0 10 C0 6.7 0 3.4 0 0 Z " fill="#3952A1" transform="translate(455,460)"/>
<path d="M0 0 C0.99 0.33 1.98 0.66 3 1 C2.67 1.33 2.34 1.66 2 2 C5.3 2.33 8.6 2.66 12 3 C12 3.33 12 3.66 12 4 C8.04 4 4.08 4 0 4 C0 2.68 0 1.36 0 0 Z " fill="#D76234" transform="translate(587,444)"/>
<path d="M0 0 C0 1.98 0 3.96 0 6 C-1.32 5.67 -2.64 5.34 -4 5 C-4 3.68 -4 2.36 -4 1 C-1 0 -1 0 0 0 Z " fill="#F65621" transform="translate(301,429)"/>
<path d="M0 0 C-0.33 0.99 -0.66 1.98 -1 3 C-4.3 2.67 -7.6 2.34 -11 2 C-11 1.67 -11 1.34 -11 1 C-3.57142857 -1.42857143 -3.57142857 -1.42857143 0 0 Z " fill="#E05E31" transform="translate(345,426)"/>
<path d="M0 0 C1.3921875 0.0928125 1.3921875 0.0928125 2.8125 0.1875 C3.1425 1.1775 3.4725 2.1675 3.8125 3.1875 C0.5125 3.1875 -2.7875 3.1875 -6.1875 3.1875 C-3.1875 0.1875 -3.1875 0.1875 0 0 Z " fill="#FED7BE" transform="translate(552.1875,311.8125)"/>
<path d="M0 0 C2.5 1.375 2.5 1.375 5 3 C5 3.66 5 4.32 5 5 C2.6568787 4.74438677 0.32156597 4.40729228 -2 4 C-2.33 3.34 -2.66 2.68 -3 2 C-2.34 2 -1.68 2 -1 2 C-0.67 1.34 -0.34 0.68 0 0 Z " fill="#FEE9D8" transform="translate(512,308)"/>
<path d="M0 0 C0.66 0.33 1.32 0.66 2 1 C2.625 3.5625 2.625 3.5625 3 6 C1.35 6 -0.3 6 -2 6 C-2 5.01 -2 4.02 -2 3 C-1.34 3 -0.68 3 0 3 C0 2.01 0 1.02 0 0 Z " fill="#DF5F2E" transform="translate(320,442)"/>
<path d="M0 0 C1.98 0 3.96 0 6 0 C6 0.99 6 1.98 6 3 C4.02 3.33 2.04 3.66 0 4 C0 2.68 0 1.36 0 0 Z " fill="#F2591B" transform="translate(309,425)"/>
<path d="M0 0 C0.66 0 1.32 0 2 0 C1.67 3.3 1.34 6.6 1 10 C0.01 10 -0.98 10 -2 10 C-1.34 6.7 -0.68 3.4 0 0 Z " fill="#FEFBF6" transform="translate(563,298)"/>
<path d="M0 0 C0.99 0 1.98 0 3 0 C3 1.65 3 3.3 3 5 C1.68 5 0.36 5 -1 5 C-0.67 3.35 -0.34 1.7 0 0 Z " fill="#EB5B26" transform="translate(462,296)"/>
<path d="M0 0 C1.32 0.66 2.64 1.32 4 2 C2.68 2 1.36 2 0 2 C0 2.99 0 3.98 0 5 C-4.875 3.25 -4.875 3.25 -6 1 C-4.7934375 1.0309375 -4.7934375 1.0309375 -3.5625 1.0625 C-1.06645115 1.29633621 -1.06645115 1.29633621 0 0 Z " fill="#C25E4D" transform="translate(522,151)"/>
<path d="M0 0 C1.4606285 2.64738916 2 3.89448334 2 7 C2.66 7 3.32 7 4 7 C3.67 7.99 3.34 8.98 3 10 C2.01 9.34 1.02 8.68 0 8 C-0.40843923 5.28796348 -0.13336867 2.7562858 0 0 Z " fill="#FEFAF0" transform="translate(508,301)"/>
<path d="M0 0 C2.35953094 2.35953094 2.49141413 3.77895617 3 7 C1.35 7 -0.3 7 -2 7 C-1.34 4.69 -0.68 2.38 0 0 Z " fill="#DD7D51" transform="translate(463,290)"/>
<path d="M0 0 C2.475 0.99 2.475 0.99 5 2 C5 2.99 5 3.98 5 5 C2.03 4.505 2.03 4.505 -1 4 C-0.34 3.67 0.32 3.34 1 3 C0.67 2.01 0.34 1.02 0 0 Z " fill="#E15F3C" transform="translate(524,144)"/>
<path d="M0 0 C0.66 0 1.32 0 2 0 C1.01 3.3 0.02 6.6 -1 10 C-2 6 -2 6 -2 3 C-1.34 3 -0.68 3 0 3 C0 2.01 0 1.02 0 0 Z " fill="#E0683B" transform="translate(455,296)"/>
<path d="M0 0 C0.99 0.33 1.98 0.66 3 1 C2.34 2.32 1.68 3.64 1 5 C0.34 5 -0.32 5 -1 5 C-0.67 3.35 -0.34 1.7 0 0 Z " fill="#3D519C" transform="translate(440,467)"/>
<path d="M0 0 C0.99 0 1.98 0 3 0 C2.67 0.99 2.34 1.98 2 3 C1.34 3 0.68 3 0 3 C0 2.01 0 1.02 0 0 Z " fill="#3B5299" transform="translate(440,461)"/>
<path d="M0 0 C0.66 0 1.32 0 2 0 C2 0.66 2 1.32 2 2 C1.34 2 0.68 2 0 2 C0 1.34 0 0.68 0 0 Z " fill="#40528D" transform="translate(598,457)"/>
<path d="M0 0 C0.66 0 1.32 0 2 0 C2 0.66 2 1.32 2 2 C1.34 2 0.68 2 0 2 C0 1.34 0 0.68 0 0 Z " fill="#3952A0" transform="translate(527,457)"/>
<path d="M0 0 C0.66 0 1.32 0 2 0 C2 0.66 2 1.32 2 2 C1.34 2 0.68 2 0 2 C0 1.34 0 0.68 0 0 Z " fill="#3952A0" transform="translate(455,457)"/>
</svg>
